<?xml version="1.0" standalone="no"?>
<!DOCTYPE svg PUBLIC "-//W3C//DTD SVG 20010904//EN"
 "http://www.w3.org/TR/2001/REC-SVG-20010904/DTD/svg10.dtd">
<svg version="1.0" xmlns="http://www.w3.org/2000/svg"
 width="816.000000pt" height="816.000000pt" viewBox="0 0 816.000000 816.000000"
 preserveAspectRatio="xMidYMid meet">

<g transform="translate(0.000000,816.000000) scale(0.100000,-0.100000)"
fill="#000000" stroke="none">
<path d="M0 4080 l0 -4080 4080 0 4080 0 0 4080 0 4080 -4080 0 -4080 0 0
-4080z m4193 3737 c-3 -6 -1 -7 5 -3 13 7 83 -24 77 -35 -3 -3 1 -6 8 -5 19 2
317 -136 312 -144 -3 -5 4 -6 15 -3 25 7 25 10 -10 -62 -31 -63 -41 -63 -14 0
8 20 13 39 11 41 -2 2 -48 24 -103 49 -54 25 -98 50 -96 56 1 6 -3 7 -9 3 -15
-9 -290 127 -282 139 3 6 1 7 -5 3 -7 -4 -12 -17 -13 -29 l0 -22 -11 21 c-10
21 -15 19 -191 -66 -235 -113 -325 -152 -336 -146 -5 3 2 -24 16 -61 13 -36
22 -67 21 -69 -2 -1 -18 29 -35 67 l-32 71 57 25 c31 14 110 49 175 79 65 30
123 52 130 48 7 -4 8 -3 4 1 -4 5 36 32 90 60 l98 51 62 -30 c34 -16 59 -34
56 -39z m-117 -250 c-16 -54 -49 -107 -67 -107 -6 0 5 18 22 40 18 22 30 42
27 45 -3 3 -13 -7 -23 -22 -10 -15 -29 -41 -44 -57 -14 -16 -20 -25 -12 -21
11 6 13 4 7 -10 -6 -17 -5 -17 16 -1 13 9 60 35 106 58 45 23 100 57 122 76
22 18 40 31 40 28 0 -15 -56 -93 -79 -110 -40 -30 -121 -115 -121 -126 0 -6
19 0 43 14 23 13 79 31 124 40 45 8 104 25 130 37 26 13 53 25 58 27 6 3 -3
-10 -20 -28 -29 -31 -242 -146 -252 -136 -3 2 17 16 44 30 26 14 44 25 40 26
-4 0 -30 -11 -57 -25 -55 -28 -64 -30 -54 -13 4 7 3 8 -5 4 -6 -4 -8 -12 -5
-18 5 -7 1 -9 -9 -5 -10 3 -17 2 -17 -3 0 -6 5 -10 11 -10 5 0 7 -4 4 -10 -3
-5 1 -10 9 -10 9 0 15 5 14 11 -2 6 3 14 11 17 8 2 11 0 8 -5 -4 -6 15 -8 47
-5 69 6 124 -22 166 -84 41 -59 33 -68 -8 -10 -43 60 -107 91 -170 82 -25 -3
-53 -12 -61 -20 -9 -8 -25 -16 -36 -19 -12 -3 -4 -5 17 -6 59 -2 51 -16 -10
-18 -31 -2 -60 -7 -66 -13 -17 -17 -29 -11 -15 6 12 15 11 16 -9 10 -16 -5
-22 -3 -22 8 0 21 16 29 38 17 14 -8 19 -6 19 5 0 7 -3 14 -7 14 -3 0 -6 8 -7
19 -1 13 4 17 20 16 13 -2 38 11 62 32 37 33 38 34 9 20 -18 -9 -42 -14 -54
-12 -16 3 -26 -4 -38 -28 -31 -57 -67 -87 -106 -87 -23 0 -43 -8 -58 -22 -13
-13 -17 -18 -8 -12 8 6 30 11 48 11 21 0 28 -3 20 -8 -7 -5 -21 -6 -30 -3 -20
6 -25 -12 -5 -19 6 -3 -3 -5 -21 -4 -18 0 -35 4 -38 9 -3 4 -12 1 -21 -8 -12
-11 -13 -18 -4 -27 8 -8 11 -8 11 1 0 7 5 12 11 12 8 0 8 -5 -1 -15 -10 -12
-16 -13 -26 -4 -8 6 -14 15 -14 20 0 17 94 79 121 79 44 0 56 9 102 74 62 88
64 93 26 64 -19 -14 -49 -30 -68 -37 -42 -14 -44 -14 -35 1 5 7 2 8 -7 3 -28
-16 -48 -38 -43 -46 8 -14 -67 -101 -82 -95 -7 3 -23 -6 -36 -19 -27 -29 -43
-31 -58 -7 -8 12 -10 13 -8 2 1 -8 -2 -25 -6 -38 -11 -34 -2 -37 36 -12 l33
22 -32 -31 c-18 -17 -33 -33 -33 -36 0 -11 30 -4 31 8 0 9 2 9 6 0 3 -10 8 -9
20 2 8 9 33 15 61 15 37 0 54 6 77 28 17 15 25 23 18 18 -8 -5 -16 -7 -18 -4
-6 5 24 20 75 36 42 15 31 2 -49 -52 -43 -29 -63 -36 -102 -36 -55 0 -69 -15
-69 -76 0 -31 -2 -35 -15 -24 -9 7 -13 15 -11 18 3 2 -2 18 -10 34 -15 29 -58
53 -75 42 -15 -9 -9 18 20 89 27 68 27 68 39 41 13 -26 13 -26 35 -8 80 68 95
88 90 121 -4 26 1 42 23 75 l29 42 3 -31 c3 -30 5 -28 108 78 57 60 104 114
104 120 0 7 3 10 6 6 3 -3 -1 -30 -10 -60z m-128 -39 c-11 -34 -38 -71 -45
-64 -5 4 46 96 52 96 2 0 -1 -15 -7 -32z m-339 -98 c0 -10 -3 -8 -9 5 -12 27
-12 43 0 25 5 -8 9 -22 9 -30z m-96 6 c4 -10 -1 -12 -16 -9 -18 4 -19 3 -7 -7
12 -9 11 -10 -6 -5 -29 8 -60 -4 -42 -17 9 -6 5 -7 -11 -3 -15 5 -21 3 -17 -3
4 -6 -3 -8 -16 -5 -17 3 -19 2 -10 -5 11 -7 11 -10 -2 -15 -9 -4 -23 -3 -33 0
-10 4 -14 2 -10 -4 3 -5 -10 -17 -29 -27 -20 -9 -33 -12 -30 -7 4 5 1 11 -6
13 -7 3 42 27 107 56 66 28 121 51 121 51 1 1 4 -5 7 -13z m1258 -42 c76 -32
106 -49 103 -59 -5 -12 -12 -11 -40 2 -24 12 -30 19 -22 25 8 5 2 8 -17 6 -20
-2 -29 1 -27 10 2 11 -13 16 -45 15 -7 -1 -10 4 -7 9 4 6 -3 8 -17 3 -20 -5
-21 -4 -9 5 12 10 11 11 -8 7 -12 -3 -20 -1 -17 3 3 5 -1 11 -7 13 -7 3 -9 6
-4 6 4 1 57 -20 117 -45z m-721 -74 c0 -5 -5 -10 -11 -10 -5 0 -7 5 -4 10 3 6
8 10 11 10 2 0 4 -4 4 -10z m-736 -60 c5 -17 4 -20 -2 -10 -5 8 -13 26 -16 40
-5 17 -4 20 2 10 5 -8 13 -26 16 -40z m-69 10 c4 -6 -1 -7 -11 -3 -12 4 -15 3
-10 -5 4 -7 -13 -21 -45 -37 -28 -15 -48 -22 -44 -16 3 6 3 11 -2 11 -14 0
-38 -19 -38 -30 0 -6 -20 -22 -44 -37 -24 -14 -40 -20 -36 -13 5 8 3 11 -6 8
-8 -3 -14 -10 -14 -15 0 -6 -4 -15 -9 -20 -5 -5 -6 -2 -1 6 5 9 3 12 -6 9 -8
-3 -13 -10 -12 -16 2 -6 -18 -26 -44 -43 -25 -18 -43 -26 -38 -19 5 8 3 11 -6
8 -8 -3 -14 -10 -14 -16 0 -6 -6 -17 -14 -24 -10 -10 -12 -10 -7 0 4 6 3 12
-3 12 -22 0 -21 -22 5 -55 14 -19 24 -35 21 -35 -2 0 -17 16 -32 35 -21 29
-24 39 -15 50 33 40 379 254 412 255 4 0 10 -4 13 -10z m1695 -10 c-9 -6 -9
-9 -1 -13 8 -4 8 -5 0 -3 -7 1 -13 9 -15 18 -1 11 3 15 13 11 11 -4 12 -8 3
-13z m-722 -27 c-10 -2 -28 -2 -40 0 -13 2 -5 4 17 4 22 1 32 -1 23 -4z m999
-125 c123 -83 128 -88 107 -114 -15 -18 -15 -18 -5 2 7 15 7 24 -1 32 -18 18
-32 14 -17 -5 8 -9 -11 1 -41 23 -30 22 -100 68 -155 102 -134 83 -134 83
-111 75 15 -5 17 -3 11 7 -12 20 91 -40 212 -122z m-911 106 c10 -8 13 -12 5
-8 -8 4 -28 11 -45 15 -29 6 -29 7 -5 8 14 1 34 -6 45 -15z m-179 -10 c-3 -3
-12 -4 -19 -1 -8 3 -5 6 6 6 11 1 17 -2 13 -5z m94 -9 c36 -19 69 -70 68 -105
-1 -21 -2 -20 -9 8 -9 38 -32 67 -75 93 -36 23 -26 25 16 4z m-146 -5 c-27
-12 -43 -12 -25 0 8 5 22 9 30 9 10 0 8 -3 -5 -9z m-4 -47 c10 -12 5 -11 -18
6 -18 12 -33 24 -33 27 0 9 37 -15 51 -33z m-201 8 c0 -5 -7 -12 -16 -15 -14
-5 -15 -4 -4 9 14 17 20 19 20 6z m315 -21 c10 -11 16 -20 13 -20 -3 0 -13 9
-23 20 -10 11 -16 20 -13 20 3 0 13 -9 23 -20z m-115 -24 c10 -14 11 -17 2
-12 -10 6 -11 2 -7 -17 7 -28 -6 -45 -109 -137 -47 -41 -76 -60 -88 -57 -21 6
-22 -5 -4 -55 19 -54 1 -37 -20 19 -14 35 -15 48 -6 51 16 5 126 97 174 145
25 25 38 47 38 64 0 15 1 24 3 22 1 -2 9 -13 17 -23z m-380 -68 c0 -13 -5 -9
-31 19 l-24 26 27 -19 c15 -10 28 -22 28 -26z m602 -3 c-2 -14 -6 -25 -8 -25
-2 0 -4 11 -4 25 0 14 4 25 9 25 4 0 6 -11 3 -25z m-151 -28 l-24 -22 19 27
c10 14 21 24 23 22 3 -3 -6 -15 -18 -27z m125 -44 c-8 -15 -15 -25 -16 -21 0
12 23 58 27 54 3 -2 -2 -17 -11 -33z m-1475 -20 l24 -28 -28 24 -27 25 -33
-30 -32 -29 29 33 c17 17 33 32 36 32 4 0 17 -12 31 -27z m2678 -43 c41 -39
69 -70 61 -70 -9 0 -8 -5 5 -20 10 -11 21 -18 25 -15 7 4 45 -34 85 -85 l20
-25 -21 18 c-11 9 -23 15 -26 12 -3 -3 -11 3 -19 12 -13 16 -12 17 4 4 24 -19
22 2 -3 24 -11 10 -20 14 -20 10 0 -4 -45 36 -101 90 l-101 98 -50 -54 c-37
-40 -42 -43 -20 -14 38 50 71 85 80 85 4 0 40 -32 81 -70z m-2782 -10 c-2 -11
-10 -26 -17 -33 -12 -10 -12 -9 -1 6 22 28 0 19 -39 -15 -23 -22 -20 -16 10
15 24 26 45 47 47 47 2 0 1 -9 0 -20z m194 -57 c13 -16 12 -17 -3 -4 -10 7
-18 15 -18 17 0 8 8 3 21 -13z m2389 -6 c0 -2 -10 -12 -22 -23 l-23 -19 19 23
c18 21 26 27 26 19z m-3965 -54 c14 -93 28 -145 50 -189 13 -26 22 -51 19 -56
-3 -5 -2 -7 3 -6 4 2 9 -1 11 -5 1 -4 -24 -26 -57 -48 -33 -22 -86 -68 -117
-102 -31 -34 -51 -51 -44 -37 7 14 46 58 87 97 70 69 73 74 59 95 -7 13 -19
41 -25 63 -7 22 -22 66 -34 98 l-22 58 -147 -2 c-144 -1 -148 0 -180 25 l-33
26 40 1 c22 1 92 5 155 9 63 3 141 7 172 8 l57 2 6 -37z m1309 25 c-4 -5 -9
-7 -12 -4 -3 4 -19 -6 -36 -21 l-31 -28 28 31 c24 27 65 45 51 22z m4579 -4
c71 -6 77 -8 76 -28 0 -19 -1 -19 -8 -3 -6 17 -8 17 -25 -2 -18 -19 -30 -21
-170 -21 l-151 0 -19 -80 c-10 -44 -31 -100 -47 -124 l-27 -44 51 -44 c29 -25
67 -67 86 -94 33 -48 33 -47 -23 13 -32 35 -86 81 -121 104 l-64 42 25 36 c28
42 58 133 69 210 l7 53 132 -6 c72 -4 166 -9 209 -12z m-4663 -67 c0 -2 -10
-12 -22 -23 l-23 -19 19 23 c18 21 26 27 26 19z m-1333 -55 c2 -15 8 -60 13
-100 6 -40 10 -78 10 -84 0 -5 -51 39 -114 99 l-115 108 97 5 c53 3 99 4 102
2 2 -1 6 -15 7 -30z m5937 25 c28 -2 28 -3 11 -17 -11 -9 -16 -10 -11 -2 5 9
-11 12 -68 12 -42 0 -76 -2 -76 -5 0 -2 14 -20 31 -40 31 -35 32 -35 53 -18
11 9 -15 -20 -58 -65 -44 -45 -81 -80 -83 -78 -3 3 11 120 22 191 l5 30 72 -3
c40 -1 86 -3 102 -5z m-1453 -34 c13 -16 12 -17 -3 -4 -10 7 -18 15 -18 17 0
8 8 3 21 -13z m-4734 -165 c-2 -24 -4 -5 -4 42 0 47 2 66 4 43 2 -24 2 -62 0
-85z m4813 -32 c0 -2 -8 -10 -17 -17 -16 -13 -17 -12 -4 4 13 16 21 21 21 13z
m-4607 -181 c-3 -9 -8 -14 -10 -11 -3 3 -2 9 2 15 9 16 15 13 8 -4z m3397 -60
c-24 -25 -46 -45 -49 -45 -3 0 15 20 39 45 24 25 46 45 49 45 3 0 -15 -20 -39
-45z m-680 -38 c0 -2 -19 -21 -42 -42 l-43 -40 40 43 c36 39 45 47 45 39z
m600 -30 c0 -2 -12 -14 -27 -28 l-28 -24 24 28 c23 25 31 32 31 24z m-2775
-22 c-25 -9 -104 -12 -99 -4 3 5 29 9 57 8 29 0 48 -2 42 -4z m4855 -3 c0 -4
-17 -6 -37 -4 -65 6 -70 10 -15 11 28 0 52 -3 52 -7z m-3368 -47 c4 -5 8 -14
8 -20 0 -5 -7 1 -16 13 -15 22 -42 29 -60 15 -5 -5 -1 0 10 10 19 17 36 12 58
-18z m603 15 c4 -6 -5 -7 -23 -4 -23 5 -33 1 -46 -17 -9 -13 -16 -19 -16 -15
0 32 69 61 85 36z m629 1 c4 -5 -3 -7 -14 -4 -12 3 -29 -2 -40 -12 -21 -19
-28 -7 -8 13 14 14 54 16 62 3z m616 -1 c11 -7 6 -8 -17 -4 -25 5 -33 2 -43
-16 -6 -12 -14 -19 -17 -16 -9 9 28 46 46 46 9 0 23 -5 31 -10z m-1330 -73 c0
-2 -17 -19 -37 -38 l-38 -34 34 38 c33 34 41 42 41 34z m1259 1 c-2 -2 -20
-16 -39 -33 l-35 -30 29 33 c17 17 34 32 40 32 5 0 7 -1 5 -2z m-689 -63 c-24
-25 -46 -45 -49 -45 -3 0 15 20 39 45 24 25 46 45 49 45 3 0 -15 -20 -39 -45z
m-979 -22 c13 -16 12 -17 -3 -4 -10 7 -18 15 -18 17 0 8 8 3 21 -13z m329 14
c0 -1 -33 -34 -72 -72 l-73 -70 70 73 c64 67 75 77 75 69z m2670 -1 c0 -2 -8
-10 -17 -17 -16 -13 -17 -12 -4 4 13 16 21 21 21 13z m-2132 -171 c14 -22 48
-69 76 -104 32 -41 46 -66 38 -69 -37 -12 -112 -74 -150 -124 -41 -52 -45 -63
-50 -128 -6 -86 -16 -84 -13 3 2 53 -2 69 -25 102 -39 60 -74 94 -124 123 -25
14 -46 27 -48 28 -2 1 18 29 44 61 55 68 101 137 138 211 l27 53 31 -58 c17
-32 42 -76 56 -98z m418 123 l29 -33 -32 29 c-31 28 -38 36 -30 36 2 0 16 -15
33 -32z m-1741 -105 c0 -39 -4 -75 -8 -79 -4 -4 -24 10 -45 31 l-37 40 36 -34
37 -33 7 31 c7 32 -10 127 -25 136 -11 7 -24 -12 -45 -65 -18 -42 -24 -48
-114 -90 -103 -49 -266 -153 -319 -203 -37 -35 -87 -174 -79 -217 5 -25 5 -25
-12 -4 -9 11 -45 53 -81 93 l-64 72 -144 -143 c-155 -154 -382 -402 -382 -417
0 -5 8 -12 18 -14 14 -4 13 -5 -4 -6 -13 -1 -28 -16 -42 -43 -20 -38 -22 -40
-17 -13 3 17 6 53 6 82 2 49 3 52 32 59 21 4 61 39 131 113 200 211 423 428
496 482 114 85 247 162 445 259 l180 88 15 -26 c9 -17 14 -55 15 -99z m3014
-143 c147 -96 220 -160 477 -424 189 -193 247 -247 272 -252 l32 -7 -1 -74
c-1 -40 -3 -73 -4 -71 -12 15 -25 49 -16 44 7 -5 11 8 11 39 0 28 -4 44 -10
40 -5 -3 -10 -15 -10 -26 0 -10 -2 -19 -4 -19 -2 0 -13 -3 -23 -6 -14 -5 -15
-4 -4 4 12 9 12 14 -4 38 -27 42 -223 251 -373 399 l-133 131 -57 -60 c-32
-34 -74 -81 -95 -105 l-37 -45 1 30 c0 16 3 23 6 16 7 -18 23 -4 23 22 0 38
-49 168 -73 194 -58 62 -222 168 -352 227 l-73 34 -41 -36 c-23 -19 -45 -32
-49 -29 -13 14 -5 141 12 173 l16 32 208 -104 c114 -57 249 -132 301 -165z
m-1059 215 c-24 -25 -46 -45 -49 -45 -3 0 15 20 39 45 24 25 46 45 49 45 3 0
-15 -20 -39 -45z m-1399 -32 c13 -16 12 -17 -3 -4 -10 7 -18 15 -18 17 0 8 8
3 21 -13z m87 -35 c19 -19 14 -33 -6 -15 -24 22 -38 21 -62 -3 -11 -11 -20
-16 -20 -11 0 33 64 53 88 29z m1258 -5 c7 -10 14 -22 14 -28 0 -5 -7 1 -16
13 -8 12 -24 22 -34 22 -10 0 -26 -10 -34 -22 -11 -16 -16 -18 -16 -7 0 38 62
54 86 22z m-2757 3 c-9 -8 -99 -44 -99 -40 0 6 81 43 94 44 5 0 7 -2 5 -4z
m1562 -103 c13 -16 12 -17 -3 -4 -10 7 -18 15 -18 17 0 8 8 3 21 -13z m1069 4
c0 -1 -24 -25 -52 -52 l-53 -50 50 53 c46 48 55 57 55 49z m-2490 -14 c-1 -11
-127 -93 -133 -86 -7 6 35 42 83 72 37 22 50 26 50 14z m3966 -23 c28 -16 54
-37 56 -48 4 -14 -8 -10 -58 22 -57 37 -76 56 -56 56 4 0 30 -13 58 -30z
m-936 -43 c0 -2 -15 -16 -32 -33 l-33 -29 29 33 c28 30 36 37 36 29z m-1279
-68 c13 -18 36 -48 50 -67 l26 -36 -61 -46 c-413 -312 -723 -473 -1231 -641
-131 -43 -242 -82 -246 -87 -12 -12 -29 -185 -35 -367 -20 -542 109 -1089 367
-1557 39 -70 73 -128 76 -128 3 0 2 7 -1 16 -3 8 -2 12 4 9 13 -8 13 1 -1 26
-5 11 -14 17 -18 14 -5 -2 -8 1 -7 8 0 6 -18 49 -42 94 -23 46 -42 86 -42 90
0 5 23 -35 51 -87 122 -227 277 -430 488 -638 80 -79 146 -152 148 -163 2 -16
0 -18 -15 -10 -25 13 -46 40 -38 48 3 3 6 2 6 -4 0 -6 7 -13 15 -17 28 -10 15
12 -25 44 -30 23 -38 27 -33 13 6 -17 5 -17 -18 1 -13 10 12 -16 55 -58 60
-58 82 -73 92 -65 10 9 8 16 -14 36 -50 45 -8 19 80 -51 48 -38 86 -72 83 -74
-2 -3 -11 0 -19 7 -8 7 -16 8 -18 4 -3 -4 -3 -2 -1 6 2 8 -2 11 -12 7 -9 -3
-13 -2 -10 3 3 5 1 12 -5 16 -5 3 -10 1 -10 -5 0 -6 -6 -8 -12 -5 -7 4 0 -5
16 -19 17 -14 33 -23 38 -20 4 3 17 0 29 -7 15 -8 19 -8 15 0 -12 19 5 12 53
-23 25 -18 72 -48 104 -66 l57 -32 33 29 c58 49 136 155 184 250 26 51 47 93
47 93 1 0 0 -52 -1 -116 l-3 -117 -42 -56 c-23 -31 -66 -81 -95 -112 l-53 -56
20 -48 c11 -26 23 -45 26 -42 3 3 1 14 -5 25 -6 12 -11 25 -11 31 0 6 34 -56
75 -136 41 -81 75 -150 75 -153 -1 -3 -10 12 -21 33 -11 22 -23 37 -25 34 -8
-8 36 -88 45 -83 4 3 8 -14 9 -37 0 -34 -1 -37 -8 -17 -4 14 -41 88 -81 165
-41 77 -82 158 -92 180 -14 31 -28 44 -62 58 -202 84 -578 395 -812 672 -442
523 -688 1274 -659 2010 7 179 23 326 36 339 5 5 -32 41 -83 82 -76 61 -93 71
-98 56 -25 -68 -28 -633 -4 -854 66 -628 269 -1177 600 -1628 47 -63 102 -135
122 -160 28 -33 30 -38 9 -20 -15 14 -60 68 -101 120 -472 617 -705 1425 -665
2309 14 305 2 276 118 296 205 36 510 127 711 211 241 101 560 289 751 443 41
33 80 60 86 60 5 1 21 -13 35 -30z m494 -10 c192 -159 492 -339 749 -449 227
-98 542 -192 771 -230 53 -9 71 -17 71 -29 1 -9 7 -112 13 -230 17 -302 -1
-620 -54 -920 -15 -84 -33 -156 -34 -136 0 6 8 60 19 120 51 279 74 757 48
1027 l-13 137 -90 -75 c-67 -56 -90 -81 -88 -97 1 -12 7 -77 13 -144 16 -159
8 -609 -14 -748 -51 -334 -134 -608 -270 -890 -115 -239 -241 -428 -427 -640
-188 -216 -544 -503 -724 -585 -59 -27 -61 -29 -104 -118 -25 -50 -47 -90 -49
-88 -2 2 17 44 41 92 l45 89 -40 45 c-83 95 -98 122 -26 46 l75 -78 34 18 c19
10 37 17 42 16 13 -4 8 2 -86 98 -67 70 -103 117 -134 176 -24 45 -43 85 -43
90 0 5 18 -24 39 -63 64 -121 155 -228 222 -263 l36 -19 110 77 c130 92 195
144 188 150 -3 3 0 11 6 19 7 8 8 13 1 13 -15 0 -33 -26 -24 -35 4 -5 2 -6 -4
-2 -5 3 -48 -22 -95 -57 -92 -68 -199 -136 -214 -136 -5 0 23 20 62 44 227
140 522 406 705 636 150 189 281 412 379 645 21 50 39 85 39 78 0 -7 -11 -38
-25 -69 -15 -33 -23 -66 -20 -78 5 -17 4 -18 -5 -6 -9 12 -10 10 -5 -9 5 -16
4 -21 -4 -17 -7 5 -9 1 -5 -9 4 -10 2 -15 -7 -13 -9 2 -14 -5 -13 -19 0 -12
-3 -20 -8 -17 -4 3 -9 -1 -10 -8 0 -7 -2 -17 -3 -23 -2 -5 -3 -16 -4 -23 0 -7
-6 -10 -13 -6 -8 5 -9 2 -5 -10 5 -11 3 -15 -5 -10 -8 5 -9 2 -5 -10 4 -10 3
-15 -3 -11 -10 6 -14 -7 -11 -34 2 -7 -2 -10 -8 -7 -5 4 -15 -2 -20 -13 -9
-16 -8 -19 7 -17 11 2 39 47 79 127 143 283 238 588 289 924 32 204 27 874 -5
908 -4 4 -113 43 -242 86 -293 98 -400 141 -587 235 -214 107 -397 221 -610
378 l-92 69 16 30 c16 32 82 109 93 109 3 0 29 -19 56 -41z m1342 -76 c-2 -16
-4 -5 -4 22 0 28 2 40 4 28 2 -13 2 -35 0 -50z m-2541 35 l19 -23 -23 20 c-23
19 -24 19 -55 1 l-32 -18 19 21 c25 27 48 27 72 -1z m1880 0 l19 -23 -23 20
c-23 19 -24 19 -55 1 l-32 -18 19 21 c25 27 48 27 72 -1z m-2609 -30 c-3 -7
-5 -2 -5 12 0 14 2 19 5 13 2 -7 2 -19 0 -25z m54 -93 c19 -22 92 -104 162
-182 70 -77 127 -143 127 -146 0 -8 -111 -39 -118 -33 -3 3 -1 6 5 6 6 0 13 9
16 20 3 11 1 20 -5 20 -5 0 -6 6 -2 12 5 7 -5 3 -20 -10 -16 -12 -33 -19 -40
-15 -12 7 12 -26 29 -40 6 -5 4 -7 -5 -5 -8 3 -81 78 -161 168 l-146 163 31
27 c41 35 79 61 86 58 4 -2 22 -21 41 -43z m1538 -17 c19 -36 19 -39 3 -19
-31 38 -59 88 -41 74 8 -6 25 -31 38 -55z m1727 21 c46 -36 52 -44 42 -57 -37
-47 -281 -317 -288 -320 -5 -2 -40 7 -79 18 -51 16 -69 25 -63 35 10 17 323
365 329 365 2 0 28 -19 59 -41z m-3606 -69 c-36 -3 -82 -15 -102 -26 -97 -50
-289 -243 -350 -351 -28 -50 -32 -53 -66 -51 l-37 1 35 4 c31 4 39 11 70 66
22 39 80 107 155 183 143 144 212 185 304 183 l56 -2 -65 -7z m3817 4 c-3 -3
-12 -4 -19 -1 -8 3 -5 6 6 6 11 1 17 -2 13 -5z m66 -1 c-7 -2 -19 -2 -25 0 -7
3 -2 5 12 5 14 0 19 -2 13 -5z m252 -177 c75 -76 133 -145 155 -183 33 -59 37
-63 75 -64 l40 -2 -35 -4 c-22 -2 -44 -14 -59 -31 l-24 -27 17 27 c16 26 15
30 -3 67 -47 91 -216 274 -312 338 -47 31 -51 39 -6 17 17 -9 86 -71 152 -138z
m-3852 -7 c70 -78 127 -145 127 -149 0 -4 -9 -10 -20 -13 -28 -7 -261 253
-253 283 3 11 9 20 13 20 3 0 64 -64 133 -141z m3423 123 c10 -15 -7 -37 -107
-147 -86 -96 -125 -131 -144 -133 -16 -2 -26 1 -24 7 5 15 250 291 258 291 3
0 11 -8 17 -18z m-2156 -105 c0 -2 -15 -16 -32 -33 l-33 -29 29 33 c28 30 36
37 36 29z m-70 -60 c0 -2 -15 -16 -32 -33 l-33 -29 29 33 c28 30 36 37 36 29z
m81 -178 c150 -86 300 -183 323 -208 14 -16 16 -47 14 -281 -3 -214 -6 -264
-17 -268 -9 -3 -11 0 -7 7 9 14 -204 -136 -249 -175 l-30 -26 35 24 c19 14 59
42 88 62 28 21 52 36 52 33 0 -3 -48 -40 -107 -83 -60 -43 -139 -102 -177
-131 -60 -47 -107 -69 -92 -44 4 5 -4 7 -16 3 -13 -3 -19 -1 -15 5 5 7 -1 9
-15 5 -16 -4 -19 -2 -13 8 5 9 4 11 -4 6 -17 -11 -73 3 -65 16 4 7 2 8 -4 4
-16 -9 -142 26 -135 37 3 6 1 7 -5 3 -14 -8 -64 3 -57 14 2 4 -7 5 -22 2 -18
-3 -24 -1 -19 6 5 8 2 10 -8 6 -15 -6 -71 44 -61 54 7 8 -36 52 -46 47 -9 -6
-50 45 -44 55 2 4 -10 20 -28 36 l-32 29 30 -35 30 -35 -32 29 c-18 16 -30 33
-27 38 3 4 -18 30 -45 57 l-51 50 41 93 c47 108 123 253 186 354 43 71 44 72
166 135 67 35 147 76 177 90 30 15 49 28 42 28 -7 1 -57 -22 -112 -49 -55 -28
-100 -48 -100 -45 0 6 177 95 210 106 14 4 46 8 71 8 39 1 63 -9 170 -70z
m959 61 c21 -7 22 -8 5 -10 -15 -1 -16 -3 -5 -7 36 -13 239 -117 291 -149 60
-36 88 -75 186 -254 36 -67 133 -275 133 -287 0 -4 -35 -44 -77 -88 -42 -44
-103 -111 -136 -150 -33 -38 -64 -72 -69 -73 -4 -2 -5 -9 -2 -14 4 -7 2 -8 -4
-4 -6 4 -60 -7 -119 -25 -60 -17 -118 -34 -130 -36 -13 -3 -21 -9 -18 -13 3
-5 -5 -6 -17 -3 -19 4 -20 3 -8 -7 12 -9 11 -10 -8 -5 -25 7 -92 -12 -92 -26
0 -15 -27 -10 -41 9 -11 14 -11 15 1 5 8 -7 18 -13 23 -13 5 0 -5 11 -21 25
-33 28 -51 33 -32 10 20 -24 5 -18 -16 7 -10 12 -13 18 -6 14 6 -4 12 -5 12
-3 0 5 -244 187 -270 202 -29 16 5 -12 123 -100 64 -48 117 -90 117 -92 0 -3
-21 11 -47 31 -27 20 -114 83 -195 142 l-148 106 0 268 0 268 123 80 c67 44
171 107 232 141 113 63 150 72 215 51z m70 -25 c14 -8 21 -14 15 -14 -5 0 -21
6 -35 14 -14 8 -20 14 -15 14 6 0 21 -6 35 -14z m-1511 -98 c-16 -12 -79 -45
-79 -42 0 7 63 45 74 45 5 0 7 -1 5 -3z m3211 -31 c0 -2 -8 -10 -17 -17 -16
-13 -17 -12 -4 4 13 16 21 21 21 13z m-4124 -187 c3 -6 -1 -18 -10 -27 -15
-15 -17 -15 -32 0 -19 19 -11 38 16 38 10 0 22 -5 26 -11z m3559 2 c8 -14 -23
-41 -40 -35 -16 6 -20 26 -8 37 9 10 41 8 48 -2z m-3524 -69 c-6 -11 -18 -23
-28 -26 -14 -6 -13 -2 5 14 12 11 22 26 22 32 0 6 3 9 6 6 3 -4 1 -15 -5 -26z
m-479 4 c15 9 -10 -34 -53 -91 -50 -68 -147 -159 -246 -233 -44 -34 -91 -74
-103 -89 -22 -28 -22 -28 -15 -3 10 35 29 54 112 116 83 63 217 202 259 268
16 25 31 41 32 36 2 -6 8 -7 14 -4z m4424 2 c5 -7 3 -8 -6 -3 -10 6 -12 4 -6
-11 5 -14 4 -16 -5 -7 -6 6 -8 16 -5 22 9 14 13 14 22 -1z m-4035 -24 c23 -25
23 -26 2 -13 -13 7 -25 19 -27 26 -8 19 -2 16 25 -13z m4107 -76 c56 -70 105
-115 262 -240 36 -29 56 -52 57 -69 1 -13 0 -18 -3 -11 -3 7 -51 47 -107 89
-56 43 -129 105 -162 138 -60 59 -141 166 -115 150 10 -6 12 -4 6 11 -9 23
-12 26 62 -68z m-3453 -268 c10 -11 16 -20 13 -20 -3 0 -13 9 -23 20 -10 11
-16 20 -13 20 3 0 13 -9 23 -20z m2578 -98 c115 -81 151 -113 68 -62 -28 18
-53 36 -56 41 -4 5 -11 9 -16 9 -6 0 -7 -5 -3 -11 4 -7 -12 -1 -35 12 -29 16
-40 28 -36 38 3 9 3 12 -1 9 -4 -4 -16 -2 -28 4 -21 11 -21 11 -2 -10 24 -28
17 -94 -15 -128 -29 -31 -42 -30 -75 4 l-27 27 16 -27 c14 -22 14 -32 5 -60
-30 -86 -78 -127 -113 -98 -13 11 -14 10 -10 -3 9 -22 40 -27 64 -11 19 14 21
13 27 -13 3 -15 13 -39 21 -52 13 -21 13 -28 -1 -66 -34 -89 -96 -111 -128
-45 -9 19 -17 28 -17 20 -1 -8 8 -30 19 -48 27 -44 14 -94 -35 -142 -31 -30
-37 -32 -60 -22 -15 7 -33 28 -41 49 -14 33 -14 40 0 71 9 19 14 37 11 40 -3
3 -5 0 -5 -6 0 -18 -61 -82 -79 -83 -9 0 -11 -3 -4 -5 7 -3 20 -1 31 5 16 9
22 3 42 -45 l23 -56 -24 -50 c-30 -63 -69 -87 -105 -63 -13 8 -31 30 -38 48
-8 18 -15 26 -15 18 -1 -7 9 -30 20 -51 19 -34 20 -43 10 -68 -7 -16 -26 -42
-42 -58 -40 -38 -75 -26 -106 36 -16 30 -23 38 -23 23 0 -11 9 -31 19 -44 18
-22 18 -26 4 -54 -24 -47 -44 -65 -73 -65 -29 0 -49 19 -68 63 -10 23 -9 32 3
50 8 12 15 26 15 32 -1 5 -8 -2 -16 -17 -8 -16 -21 -28 -29 -28 -11 0 -10 -5
5 -20 11 -11 20 -25 20 -31 0 -6 10 -24 21 -41 20 -27 20 -31 5 -46 -15 -15
-16 -15 -16 1 0 10 -5 15 -10 12 -8 -5 -7 -11 1 -21 16 -20 37 -17 44 6 9 30
55 27 55 -2 0 -13 9 -38 20 -56 12 -19 16 -31 11 -28 -5 4 -12 2 -16 -4 -9
-15 -27 -1 -21 16 3 7 1 16 -3 19 -5 3 -7 15 -4 28 5 21 5 21 -9 3 -9 -12 -21
-17 -32 -13 -17 7 -23 -8 -7 -17 13 -8 94 -106 88 -106 -3 0 -60 61 -127 135
-67 74 -127 132 -133 128 -5 -3 -7 -1 -4 4 4 6 0 16 -8 23 -8 7 -15 18 -15 24
0 10 72 245 139 456 l27 85 214 65 215 65 145 162 145 161 35 -21 c19 -11 84
-54 143 -95z m-2519 -44 c76 -84 150 -158 165 -165 14 -6 107 -35 206 -64 99
-29 187 -56 196 -60 9 -5 24 -36 34 -71 9 -35 46 -157 82 -272 57 -186 62
-210 49 -225 -8 -9 -16 -20 -18 -26 -2 -5 -6 -9 -9 -8 -3 1 -73 -72 -155 -162
-128 -140 -153 -163 -179 -164 -16 0 -37 4 -45 9 -10 6 -3 8 23 3 31 -5 42 -1
62 17 23 21 26 48 4 34 -5 -3 -9 -2 -8 3 4 22 -2 32 -17 26 -13 -5 -13 -8 -2
-15 10 -8 10 -9 -2 -5 -8 2 -16 9 -16 15 -1 7 -3 15 -4 20 -1 4 -2 10 -1 15 2
13 -7 8 -34 -19 -14 -14 -22 -31 -19 -37 5 -9 4 -9 -6 0 -12 11 -6 25 36 81 2
2 19 -1 38 -8 28 -9 36 -17 36 -36 0 -28 28 -44 41 -23 5 8 9 19 9 24 0 6 -4
4 -9 -4 -5 -7 -14 -10 -20 -7 -16 10 -14 41 5 57 8 7 22 26 30 43 14 28 14 29
-1 11 -37 -47 -46 -55 -66 -55 -33 0 -58 18 -78 58 -18 36 -18 38 0 67 11 17
19 39 18 50 0 14 -3 12 -9 -9 -29 -96 -120 -86 -174 18 -14 27 -13 31 5 54 10
14 19 32 18 41 0 13 -1 14 -6 1 -23 -62 -69 -65 -117 -8 -20 23 -36 36 -36 30
0 -19 71 -92 89 -92 10 0 27 -17 38 -37 19 -34 20 -41 7 -65 -19 -36 -48 -52
-73 -39 -24 14 -77 74 -96 112 -15 28 -15 32 4 63 12 18 21 42 20 52 0 15 -3
13 -12 -7 -17 -37 -37 -59 -54 -59 -25 0 -80 64 -93 107 -11 36 -10 47 4 76 9
19 16 41 16 49 1 7 10 -4 20 -24 23 -43 55 -68 87 -68 18 0 23 -6 23 -25 0
-14 4 -25 8 -25 4 0 6 15 4 33 -3 30 -7 33 -28 29 -32 -6 -87 52 -101 105 -8
33 -7 43 9 62 10 13 18 28 17 35 0 6 -5 1 -11 -11 -26 -54 -79 -35 -113 39
-22 47 -23 54 -9 79 19 37 17 52 -2 16 -24 -44 -63 -34 -92 23 -25 49 -25 88
2 140 8 17 10 30 5 30 -6 0 -19 19 -29 43 -13 28 -20 35 -20 21 0 -12 9 -33
21 -47 l20 -27 -20 -45 c-21 -49 -31 -54 -55 -29 -20 19 -20 25 -2 18 10 -4
14 1 13 15 -1 22 -27 30 -28 9 0 -7 -5 -3 -11 9 -14 29 8 113 29 113 12 0 12
3 -1 16 -9 8 -14 20 -11 25 12 19 -17 8 -40 -16 -26 -25 -35 -21 -12 7 30 36
278 208 301 208 7 0 74 -69 150 -152z m1046 87 c0 -2 -20 -18 -45 -35 -25 -17
-45 -29 -45 -26 0 4 80 64 88 66 1 0 2 -2 2 -5z m64 -33 c2 -4 -4 -8 -14 -8
-10 0 -16 4 -14 8 3 4 9 8 14 8 5 0 11 -4 14 -8z m1379 -51 c20 -12 37 -27 37
-33 0 -5 -12 0 -26 11 -15 12 -32 21 -38 21 -8 0 -8 -2 0 -8 14 -9 15 -92 1
-109 -6 -8 -6 -13 0 -13 5 0 10 -7 10 -15 0 -31 -28 -14 -46 27 -17 41 -17 44
1 85 11 24 16 48 12 54 -8 14 0 11 49 -20z m867 -3 c-40 -66 -21 -136 59 -213
55 -53 97 -112 87 -122 -3 -4 -6 -2 -6 4 0 6 -32 46 -71 89 -77 85 -115 151
-105 186 6 25 43 88 51 88 2 0 -4 -15 -15 -32z m-4483 -35 c7 -18 13 -49 12
-70 -1 -34 -2 -35 -9 -13 -4 14 -8 18 -9 9 -1 -8 -14 -35 -29 -60 -16 -24 -27
-50 -26 -57 1 -7 0 -8 -3 -2 -8 16 -23 1 -17 -18 4 -12 3 -13 -3 -4 -7 10 -16
7 -36 -12 -28 -26 -35 -46 -16 -46 5 0 7 5 4 10 -3 6 3 10 15 10 14 0 19 -4
14 -12 -22 -36 30 21 58 63 17 27 33 47 36 45 2 -2 -17 -35 -42 -71 -25 -37
-46 -71 -46 -76 0 -28 120 65 152 116 10 16 18 24 18 18 0 -19 -67 -90 -114
-122 -45 -30 -80 -46 -71 -32 3 5 0 13 -6 17 -8 4 -7 9 2 15 11 7 10 9 -3 9
-12 0 -18 -8 -18 -21 0 -11 -4 -18 -10 -14 -5 3 -7 12 -3 20 7 20 -3 19 -25
-3 -23 -23 -35 -52 -21 -52 14 0 39 -26 39 -39 0 -6 -4 -19 -8 -29 -5 -9 -15
-30 -23 -47 -8 -16 -34 -41 -57 -53 -36 -20 -42 -28 -36 -45 9 -29 8 -29 28
-21 9 3 14 10 11 14 -3 4 2 13 10 20 9 8 15 8 15 2 0 -6 -6 -13 -12 -16 -7 -4
-3 -4 10 -2 32 6 27 -11 -5 -19 -16 -3 -46 -18 -68 -32 -39 -25 -39 -25 -20
-3 l20 23 -20 -7 c-18 -7 -18 -5 3 14 12 11 22 24 22 27 0 4 -3 3 -7 0 -3 -4
-12 -2 -19 4 -8 7 -14 6 -20 -2 -4 -8 -3 -9 4 -5 18 11 14 -10 -5 -25 -14 -12
-16 -12 -8 0 6 11 4 13 -8 8 -12 -4 -14 -2 -10 10 5 13 3 13 -25 -1 -17 -9
-38 -16 -46 -16 -9 0 -22 -16 -31 -36 -14 -35 -14 -36 18 -74 30 -36 32 -37
40 -18 13 37 -1 61 -34 56 -16 -3 -29 -3 -29 0 0 11 36 62 44 62 5 0 1 -9 -9
-20 -19 -21 -13 -42 7 -22 14 14 32 16 23 3 -3 -5 4 -13 15 -16 14 -5 18 -11
12 -18 -15 -20 -31 -74 -24 -83 4 -5 -16 13 -44 41 -50 49 -51 50 -37 82 7 18
13 44 13 59 0 26 1 26 19 10 26 -24 51 -14 95 34 37 42 47 85 24 108 -9 9 -8
12 4 12 9 0 30 11 46 25 16 13 31 22 34 19 3 -2 11 4 19 13 13 16 12 17 -3 4
-25 -19 -23 -11 18 66 19 37 33 60 30 50 -16 -50 -18 -67 -7 -67 6 0 11 7 11
15 0 9 33 51 74 95 99 105 119 175 68 234 -16 20 -16 20 2 6 11 -8 25 -29 33
-47z m1238 -13 c10 -11 16 -20 13 -20 -3 0 -13 9 -23 20 -10 11 -16 20 -13 20
3 0 13 -9 23 -20z m-535 -60 c-16 -40 -23 -33 -9 9 6 18 14 30 17 27 2 -3 -1
-19 -8 -36z m2830 7 c0 -13 7 -32 15 -43 8 -10 15 -25 15 -33 0 -19 -41 -104
-47 -97 -3 2 3 16 12 30 11 16 13 26 6 26 -6 0 -11 -4 -11 -10 0 -5 -5 -10
-11 -10 -5 0 -7 5 -4 10 10 16 -5 12 -23 -7 -16 -16 -16 -16 0 -11 13 5 16 2
14 -18 -4 -33 -9 -37 -40 -23 -40 19 -53 77 -26 128 11 22 20 47 20 56 0 11 6
15 18 11 9 -3 24 -1 32 4 23 15 30 12 30 -13z m917 -49 c-3 -7 -5 -2 -5 12 0
14 2 19 5 13 2 -7 2 -19 0 -25z m-4027 18 c0 -2 -8 -10 -17 -17 -16 -13 -17
-12 -4 4 13 16 21 21 21 13z m227 -28 c-3 -7 -5 -2 -5 12 0 14 2 19 5 13 2 -7
2 -19 0 -25z m1313 28 c0 -2 -25 -22 -55 -45 -30 -23 -55 -39 -55 -37 0 5 102
85 108 86 1 0 2 -2 2 -4z m-1963 -38 c-3 -8 -6 -5 -6 6 -1 11 2 17 5 13 3 -3
4 -12 1 -19z m473 -2 c0 -8 -7 -17 -16 -20 -19 -7 -47 12 -38 25 9 15 54 10
54 -5z m3556 2 c4 -7 3 -8 -4 -4 -7 4 -12 2 -12 -3 0 -6 -9 -11 -20 -11 -20 0
-26 11 -13 23 10 11 41 8 49 -5z m482 -62 c11 4 13 3 5 -3 -9 -6 -4 -20 18
-52 16 -24 29 -49 29 -55 0 -6 -10 5 -23 25 -12 20 -37 58 -54 84 -18 27 -33
54 -33 59 1 6 10 -6 21 -26 14 -27 24 -36 37 -32z m-3818 19 c0 -5 -5 -3 -10
5 -5 8 -10 20 -10 25 0 6 5 3 10 -5 5 -8 10 -19 10 -25z m2874 -50 c-4 -8 -11
-15 -16 -15 -6 0 -5 6 2 15 7 8 14 15 16 15 2 0 1 -7 -2 -15z m916 -52 c0 -3
-15 6 -34 20 -18 15 -37 23 -41 19 -5 -4 -5 -1 -1 6 5 9 16 5 42 -14 19 -15
34 -29 34 -31z m250 -106 c16 -14 35 -27 41 -29 9 -3 9 -9 0 -26 -15 -28 4
-66 54 -111 40 -35 62 -39 72 -14 5 13 10 5 19 -27 6 -25 14 -52 18 -60 4 -10
-13 -36 -48 -75 -49 -54 -54 -57 -47 -30 15 56 -20 102 -60 77 -17 -11 -18 -9
-9 13 8 21 5 27 -20 45 -16 11 -46 27 -67 35 -21 7 -30 14 -20 14 10 1 33 -6
52 -13 33 -14 39 -13 36 7 -1 5 3 6 9 2 38 -23 -46 118 -94 158 -51 42 -55 39
-26 -28 15 -35 28 -49 56 -61 20 -8 34 -18 31 -21 -3 -3 -24 5 -46 18 -29 16
-44 33 -52 58 -6 20 -17 45 -24 57 -20 32 12 28 53 -7 37 -33 38 -33 56 -17
11 10 10 17 -7 40 -11 15 -24 25 -29 22 -5 -3 -7 -2 -6 3 1 4 -8 34 -20 66
-32 83 -27 83 13 0 19 -39 48 -82 65 -96z m-4000 97 c-9 -26 -15 -33 -21 -23
-13 20 -11 37 2 19 8 -12 10 -9 6 12 -2 15 1 29 7 31 18 7 19 0 6 -39z m54 11
c4 -19 22 -50 40 -69 31 -34 32 -37 20 -72 -19 -55 -34 -65 -32 -21 1 20 5 34
10 31 4 -3 8 2 8 10 0 10 -8 13 -26 10 -20 -4 -27 0 -31 16 -7 25 -23 27 -24
3 0 -16 -1 -16 -8 1 -7 19 18 126 30 126 4 0 10 -16 13 -35z m3660 -25 c6 -9
1 -5 -11 8 -13 13 -23 28 -23 35 0 7 6 3 12 -8 6 -11 16 -27 22 -35z m127 27
c-10 -9 -11 -8 -5 6 3 10 9 15 12 12 3 -3 0 -11 -7 -18z m-4566 -35 l-28 -27
24 31 c13 17 26 30 28 27 3 -2 -8 -16 -24 -31z m3495 14 c-6 -6 -16 -11 -23
-11 -7 0 -12 -7 -12 -15 0 -8 -6 -21 -13 -29 -7 -7 -11 -20 -8 -28 3 -8 2 -11
-3 -8 -13 8 -22 -10 -15 -29 5 -12 10 -14 19 -6 10 8 15 8 21 -1 4 -8 3 -9 -5
-5 -17 11 -27 -24 -10 -36 12 -8 11 -9 -1 -6 -8 2 -23 19 -32 38 -16 32 -16
34 2 58 11 13 22 39 26 57 5 29 10 33 35 33 22 -1 27 -4 19 -12z m1030 -12 c0
-2 -9 0 -20 6 -11 6 -20 13 -20 16 0 2 9 0 20 -6 11 -6 20 -13 20 -16z m125
-42 c-3 -3 -11 0 -18 7 -9 10 -8 11 6 5 10 -3 15 -9 12 -12z m-4618 2 c-3 -3
-12 -4 -19 -1 -8 3 -5 6 6 6 11 1 17 -2 13 -5z m650 -56 c-3 -7 -5 -2 -5 12 0
14 2 19 5 13 2 -7 2 -19 0 -25z m208 -8 c7 -34 56 -90 78 -90 36 0 18 -100
-22 -125 -21 -13 -51 7 -76 49 -27 46 -31 61 -15 51 6 -3 10 1 10 10 0 11 -5
15 -15 11 -8 -3 -15 -1 -15 4 0 6 6 10 13 10 9 0 9 2 0 8 -8 5 -7 20 5 59 17
56 27 60 37 13z m-838 4 c-3 -3 -12 -4 -19 -1 -8 3 -5 6 6 6 11 1 17 -2 13 -5z
m4340 0 c-3 -3 -12 -4 -19 -1 -8 3 -5 6 6 6 11 1 17 -2 13 -5z m-4511 -20 c-9
-8 -16 -20 -16 -26 0 -6 -3 -9 -6 -6 -8 9 14 48 27 48 6 0 3 -7 -5 -16z m3518
-24 c7 -23 6 -24 -7 -7 -20 24 -39 18 -56 -17 -13 -26 -13 -30 4 -42 10 -8 14
-14 9 -14 -6 0 -15 5 -21 11 -19 19 -38 -28 -24 -58 15 -33 13 -42 -4 -19 -20
26 -19 44 5 91 11 22 20 50 20 63 0 19 4 23 20 19 11 -3 23 -1 26 5 8 13 20
-1 28 -32z m-3363 -7 c13 -16 12 -17 -3 -4 -17 13 -22 21 -14 21 2 0 10 -8 17
-17z m754 -1 c-3 -3 -11 0 -18 7 -9 10 -8 11 6 5 10 -3 15 -9 12 -12z m-905
-38 c-8 -8 -23 -20 -34 -25 -13 -6 -10 0 9 15 34 29 43 33 25 10z m4137 -16
c-3 -8 -6 -5 -6 6 -1 11 2 17 5 13 3 -3 4 -12 1 -19z m581 -29 c-7 -5 -20 -9
-28 -9 -29 -1 -43 -19 -50 -62 -7 -42 -8 -42 -9 -8 -1 45 23 80 55 80 30 0 30
6 2 32 -19 16 -17 16 10 -2 26 -17 31 -25 20 -31z m-4617 -1 c15 -28 5 -21
-21 15 -15 20 -17 27 -6 18 9 -8 22 -23 27 -33z m3489 32 c0 -5 -5 -10 -11
-10 -5 0 -7 5 -4 10 3 6 8 10 11 10 2 0 4 -4 4 -10z m1010 -4 c0 -2 -8 -10
-17 -17 -16 -13 -17 -12 -4 4 13 16 21 21 21 13z m-3656 -31 c3 -8 1 -15 -4
-15 -6 0 -10 7 -10 15 0 8 2 15 4 15 2 0 6 -7 10 -15z m3166 -82 c-34 -125
-82 -275 -86 -270 -2 2 16 71 41 153 25 82 48 165 52 184 3 19 8 30 10 23 3
-7 -5 -47 -17 -90z m-4084 62 c9 -13 14 -30 11 -37 -4 -9 -6 -8 -6 3 -1 19
-29 45 -56 52 -15 4 -14 5 7 6 19 1 33 -7 44 -24z m3368 -55 c-3 -2 -8 1 -12
7 -5 7 -11 7 -20 -3 -10 -11 -10 -14 0 -14 7 -1 3 -9 -10 -19 -12 -11 -20 -26
-16 -34 3 -8 1 -18 -5 -22 -7 -3 -8 0 -5 9 3 9 1 16 -5 16 -6 0 -11 -6 -12
-12 0 -10 -2 -10 -6 0 -7 19 -23 14 -23 -7 0 -23 16 -37 22 -20 2 7 4 -4 4
-24 0 -28 -3 -34 -13 -25 -7 5 -17 26 -23 46 -8 29 -6 44 9 77 10 22 21 48 25
58 3 10 10 16 15 13 5 -3 20 -2 33 3 19 8 25 5 35 -18 6 -14 9 -28 7 -31z
m-3404 35 c7 -9 10 -18 6 -22 -3 -3 -6 -1 -6 6 0 6 -10 16 -22 21 -16 6 -18 9
-7 9 9 1 22 -6 29 -14z m127 -7 c-3 -8 -6 -5 -6 6 -1 11 2 17 5 13 3 -3 4 -12
1 -19z m4575 6 c-47 -32 -27 -74 73 -154 46 -36 67 -58 55 -57 -10 1 -17 3
-15 5 2 2 -17 21 -43 42 -95 74 -129 143 -84 169 27 16 39 13 14 -5z m-261
-27 c-10 -9 -11 -8 -5 6 3 10 9 15 12 12 3 -3 0 -11 -7 -18z m-956 -7 c3 -5 1
-10 -4 -10 -6 0 -11 5 -11 10 0 6 2 10 4 10 3 0 8 -4 11 -10z m-2407 -67 c7
-23 7 -35 -2 -42 -8 -7 -11 -2 -10 17 2 36 -6 54 -20 49 -6 -2 -19 4 -29 13
-17 16 -16 17 17 6 26 -8 36 -18 44 -43z m2347 3 c-4 -20 -12 -36 -17 -36 -5
0 -6 9 -2 23 5 12 8 32 9 44 0 12 4 18 8 14 5 -5 5 -25 2 -45z m-3622 14 c3
-11 1 -18 -4 -14 -5 3 -9 12 -9 20 0 20 7 17 13 -6z m198 2 c-5 -9 -19 -26
-32 -37 -17 -15 -15 -10 7 17 32 41 40 48 25 20z m4556 -4 c-3 -8 -6 -5 -6 6
-1 11 2 17 5 13 3 -3 4 -12 1 -19z m-1077 1 c0 -5 -4 -8 -9 -4 -5 3 -12 -3
-14 -12 -4 -14 -5 -13 -6 5 -1 13 5 22 14 22 8 0 15 -5 15 -11z m1275 -108
c15 -11 25 -21 21 -21 -4 0 0 -15 9 -32 8 -18 10 -24 3 -14 -7 10 -41 52 -75
93 -35 41 -63 79 -63 85 0 5 18 -12 39 -40 22 -27 51 -59 66 -71z m-4628 87
c-3 -8 -6 -5 -6 6 -1 11 2 17 5 13 3 -3 4 -12 1 -19z m4452 -43 c0 -5 -4 -3
-9 5 -5 8 -9 22 -9 30 0 16 17 -16 18 -35z m-4611 -29 c-29 -35 -59 -72 -66
-82 -7 -10 -6 -5 2 11 14 29 102 135 112 135 3 0 -19 -29 -48 -64z m3295 37
c6 -32 0 -44 -12 -24 -6 10 -10 9 -14 -4 -4 -9 -3 -13 3 -10 6 3 10 -1 10 -9
0 -8 -5 -18 -10 -21 -6 -4 -8 -10 -5 -15 3 -5 -4 -11 -15 -15 -11 -3 -20 -10
-20 -15 0 -4 -7 -7 -16 -6 -9 0 -19 -6 -21 -14 -4 -13 -3 -13 6 0 7 10 13 12
21 4 7 -7 4 -16 -9 -31 -17 -18 -18 -22 -5 -27 23 -9 24 -8 18 12 -5 14 -4 14
5 2 8 -12 14 -11 35 9 13 13 31 37 40 55 9 17 16 24 16 15 0 -22 -46 -81 -76
-97 -32 -17 -73 1 -93 42 -12 26 -12 32 3 55 10 14 25 43 34 63 14 30 23 38
44 38 15 0 30 5 33 10 11 18 23 11 28 -17z m-3152 -10 c-12 -20 -14 -14 -5 12
4 9 9 14 11 11 3 -2 0 -13 -6 -23z m3756 5 c-3 -8 -6 -5 -6 6 -1 11 2 17 5 13
3 -3 4 -12 1 -19z m-3960 -22 c-24 -22 -33 -36 -25 -38 7 -3 0 -7 -17 -10 -29
-6 -28 -4 20 38 27 24 52 44 55 44 3 -1 -12 -16 -33 -34z m1208 -6 c8 -16 33
-39 54 -50 22 -11 42 -29 46 -40 4 -11 22 -41 41 -65 18 -25 29 -45 24 -45 -6
0 -10 5 -10 11 0 5 -6 7 -12 3 -7 -4 -10 -4 -6 1 4 4 -6 26 -22 48 -17 23 -30
47 -30 54 0 7 -4 13 -10 13 -5 0 -10 -17 -10 -37 l-1 -38 -14 40 c-8 22 -15
41 -15 43 0 2 -4 0 -10 -3 -5 -3 -10 -1 -10 5 0 7 -9 23 -20 37 -18 24 -27 53
-15 53 2 0 11 -13 20 -30z m-1021 -12 c-29 -48 -114 -167 -114 -161 0 9 111
173 117 173 2 0 1 -6 -3 -12z m3246 -37 c0 -5 -7 -14 -15 -21 -16 -14 -18 -10
-9 14 6 17 24 22 24 7z m-3200 -15 c0 -2 -8 -10 -17 -17 -16 -13 -17 -12 -4 4
13 16 21 21 21 13z m-310 -21 c-7 -8 -9 -15 -4 -15 12 0 -18 -20 -30 -20 -5 0
1 11 14 25 25 27 40 35 20 10z m3244 0 c12 -1 23 -12 27 -27 9 -35 -22 -52
-68 -39 -30 9 -34 7 -39 -15 -9 -35 3 -72 26 -79 11 -3 20 -11 20 -16 0 -18
-40 11 -55 41 -19 36 -19 64 -1 79 8 6 19 25 26 42 9 22 17 28 29 23 9 -4 25
-7 35 -9z m1577 -2 c13 -16 12 -17 -3 -4 -10 7 -18 15 -18 17 0 8 8 3 21 -13z
m228 -7 c23 -24 23 -25 2 -19 -11 3 -18 9 -16 14 3 4 -3 12 -12 18 -10 6 -13
11 -7 11 6 0 21 -11 33 -24z m-2736 -1 c94 -9 346 -7 436 3 l73 8 53 -55 c113
-121 307 -342 303 -346 -2 -2 -28 23 -57 55 -29 34 -57 57 -63 54 -6 -4 -8 -2
-5 3 4 6 -15 30 -41 54 -26 24 -52 53 -56 64 -8 20 -8 20 -16 -2 -12 -29 -42
-20 -77 21 -22 27 -23 27 -9 4 25 -42 20 -85 -13 -119 -16 -16 -36 -29 -44
-29 -23 0 -63 37 -77 70 -11 27 -11 37 4 67 9 19 14 38 11 41 -3 3 -5 0 -5 -6
0 -21 -52 -72 -74 -72 -12 0 -33 8 -46 17 -18 12 -22 13 -13 2 9 -11 7 -24
-11 -59 -39 -78 -105 -79 -145 -3 -11 21 -20 34 -21 28 0 -19 39 -74 66 -91
21 -14 30 -15 45 -6 26 16 27 16 34 -18 3 -16 16 -41 27 -55 20 -26 20 -27 3
-65 -32 -71 -84 -88 -127 -42 -46 47 -51 76 -23 118 14 20 25 44 25 53 -1 9
-10 0 -20 -21 -24 -45 -66 -79 -88 -71 -28 10 -63 46 -76 78 -11 26 -10 34 11
64 13 18 23 39 23 45 0 6 -8 -2 -18 -19 -43 -70 -93 -74 -129 -10 -15 26 -23
33 -23 22 0 -11 16 -35 35 -54 27 -27 41 -34 59 -29 20 5 25 1 31 -21 3 -14
15 -37 25 -50 16 -20 17 -29 8 -51 -18 -41 -30 -53 -45 -48 -8 3 -12 2 -9 -3
3 -5 -1 -14 -10 -21 -20 -18 -62 13 -88 64 -18 38 -18 38 4 78 26 47 23 59 -5
17 -36 -54 -77 -49 -117 16 -10 17 -18 23 -18 15 0 -9 7 -26 16 -38 33 -47
-31 -135 -70 -96 -27 26 -38 85 -21 109 46 63 42 63 -22 1 l-71 -70 20 -50
c36 -91 39 -99 35 -102 -2 -2 -18 33 -36 77 -30 79 -31 83 -14 103 10 11 61
68 113 126 53 58 126 140 164 182 53 61 73 77 90 73 11 -2 52 -7 89 -10z
m2514 -89 c23 -32 43 -63 43 -69 0 -6 -13 10 -29 35 -16 25 -47 66 -68 90 -21
23 -27 34 -14 23 13 -11 44 -46 68 -79z m-4547 81 c0 -2 -15 -16 -32 -33 l-33
-29 29 33 c28 30 36 37 36 29z m4780 -87 c5 -19 10 -44 9 -55 0 -11 -7 5 -15
35 -8 30 -19 59 -24 64 -6 6 -10 15 -10 21 1 19 30 -28 40 -65z m-5071 29 c-6
-12 -15 -45 -19 -73 -7 -46 -8 -47 -9 -14 -1 36 27 124 36 114 3 -2 -1 -14 -8
-27z m5037 -32 c8 -4 14 -13 14 -20 0 -7 -4 -6 -10 3 -7 10 -10 -10 -9 -65 0
-74 1 -78 14 -55 8 14 14 20 15 14 0 -11 -57 -104 -64 -104 -2 0 1 13 7 29 6
17 13 28 16 26 12 -7 -2 161 -15 194 -19 45 -17 53 3 16 9 -16 22 -34 29 -38z
m-3339 8 c19 4 26 -2 43 -34 l20 -40 -26 -30 c-15 -18 -35 -31 -49 -31 -26 0
-66 29 -95 71 -21 29 -21 30 -3 67 l18 38 35 -23 c22 -16 42 -22 57 -18z
m2485 -52 c-84 -215 -171 -384 -300 -583 -63 -98 -191 -267 -223 -296 -12 -10
10 20 48 69 71 88 189 260 257 374 49 83 175 348 212 445 15 42 30 75 32 73 2
-2 -10 -39 -26 -82z m-962 71 c0 -3 -6 -12 -14 -19 -12 -12 -15 -12 -19 0 -3
7 -1 16 6 19 17 7 27 7 27 0z m-3190 -44 c-5 -22 -8 -27 -9 -13 -1 21 9 56 14
51 2 -2 0 -19 -5 -38z m3210 18 c-11 -12 -23 -18 -27 -15 -3 4 2 14 13 22 29
22 37 18 14 -7z m-3089 -29 c-5 -13 -10 -19 -10 -12 -1 15 10 45 15 40 3 -2 0
-15 -5 -28z m3185 16 c-8 -8 -18 -24 -21 -36 -4 -11 -9 -18 -12 -16 -7 8 26
67 38 67 6 0 4 -7 -5 -15z m-3154 -45 c-9 -21 -18 -35 -20 -30 -3 9 25 70 33
70 2 0 -4 -18 -13 -40z m1338 18 c0 -5 -5 -6 -12 -2 -8 5 -9 2 -5 -9 7 -18 -8
-24 -17 -8 -10 15 5 40 20 34 8 -3 14 -9 14 -15z m40 -8 c6 -11 9 -20 7 -20
-2 0 -12 9 -22 20 -10 11 -13 20 -7 20 6 0 16 -9 22 -20z m3345 -88 c-10 -69
-17 -42 -8 34 5 43 9 58 11 40 2 -17 1 -50 -3 -74z m-18 36 c-3 -8 -6 -5 -6 6
-1 11 2 17 5 13 3 -3 4 -12 1 -19z m180 0 c-3 -8 -6 -5 -6 6 -1 11 2 17 5 13
3 -3 4 -12 1 -19z m-3592 2 c3 -6 -1 -7 -9 -4 -18 7 -21 14 -7 14 6 0 13 -4
16 -10z m1244 -20 c6 -14 18 -37 28 -53 17 -27 17 -29 -2 -64 -11 -20 -32 -45
-47 -57 l-28 -20 -27 20 c-16 11 -38 40 -49 64 l-21 43 23 35 c13 19 24 40 24
46 0 6 19 11 45 11 39 0 46 -3 54 -25z m269 -21 c13 -25 20 -52 16 -64 -8 -26
-53 -73 -52 -54 3 43 -1 50 -23 38 -15 -8 -19 -8 -15 0 4 6 2 11 -4 11 -6 0
-8 5 -4 11 4 8 9 7 15 -2 8 -12 11 -12 18 0 8 12 11 9 16 -12 4 -15 11 -27 17
-27 5 0 6 5 3 10 -3 6 -1 10 4 10 15 0 13 40 -4 70 l-14 25 3 -28 c1 -15 6
-30 9 -34 4 -3 7 -11 7 -17 -1 -6 -9 0 -20 13 -11 12 -17 28 -13 34 4 6 1 7
-7 2 -10 -6 -12 -4 -7 8 8 21 0 22 -19 3 -12 -13 -11 -15 6 -21 11 -3 20 -11
20 -16 0 -6 -9 -8 -19 -4 -11 3 -22 1 -26 -5 -9 -15 13 -68 31 -73 9 -3 7 -4
-3 -3 -10 1 -28 20 -41 43 -22 40 -22 44 -8 65 9 12 16 32 16 44 0 18 5 21 38
19 33 -2 39 -7 60 -46z m-3001 19 c-3 -8 -6 -5 -6 6 -1 11 2 17 5 13 3 -3 4
-12 1 -19z m1031 5 c2 -8 -6 -13 -22 -13 -25 0 -33 10 -19 24 10 10 36 3 41
-11z m3042 7 c0 -12 -28 -25 -36 -17 -9 9 6 27 22 27 8 0 14 -5 14 -10z
m-2454 -38 c-18 -16 -18 -16 -8 4 6 12 10 24 8 26 -1 3 2 2 8 -3 7 -6 4 -15
-8 -27z m-1453 13 c-3 -9 -8 -14 -10 -11 -3 3 -2 9 2 15 9 16 15 13 8 -4z
m3047 5 c0 -5 -5 -10 -11 -10 -5 0 -7 5 -4 10 3 6 8 10 11 10 2 0 4 -4 4 -10z
m-150 -42 c0 -16 -20 -7 -30 12 -10 19 -10 20 9 8 12 -7 21 -16 21 -20z
m-3025 2 c-3 -11 -2 -20 3 -20 5 0 14 -12 21 -27 l12 -28 -21 25 c-29 35 -45
64 -31 56 6 -4 11 -2 11 3 0 6 3 11 6 11 3 0 2 -9 -1 -20z m1675 10 c0 -5 -2
-10 -4 -10 -3 0 -8 5 -11 10 -3 6 -1 10 4 10 6 0 11 -4 11 -10z m2915 -30 c21
-22 37 -40 34 -40 -3 0 -23 18 -44 40 -21 22 -37 40 -34 40 3 0 23 -18 44 -40z
m-2795 4 c0 -2 -12 -4 -27 -4 -21 0 -24 3 -14 9 13 8 41 5 41 -5z m-100 -16
c10 -6 7 -7 -10 -2 -14 3 -32 11 -40 16 -10 6 -7 7 10 2 14 -3 32 -11 40 -16z
m1170 -86 c0 -4 -5 1 -11 11 -6 9 -15 15 -20 11 -5 -3 -9 -2 -8 3 5 27 -2 33
-21 23 -15 -8 -20 -8 -20 1 0 8 -4 8 -15 -1 -8 -7 -15 -18 -14 -24 0 -7 2 -6
6 2 6 16 20 15 26 -1 3 -9 -4 -13 -22 -12 -48 1 -54 -33 -16 -89 22 -32 23
-35 5 -26 -22 12 -50 60 -50 85 0 9 9 28 20 42 11 14 20 34 20 45 0 15 5 18
20 13 11 -3 27 -2 37 4 15 8 21 2 40 -36 13 -24 23 -47 23 -51z m136 61 c-8
-15 -15 -25 -16 -21 0 12 23 58 27 54 3 -2 -2 -17 -11 -33z m1899 -184 c153
-96 377 -267 353 -269 -4 0 -36 25 -70 56 -35 31 -167 125 -293 209 -127 84
-237 161 -245 170 -8 10 23 -9 70 -42 47 -33 130 -89 185 -124z m-4565 157 c0
-2 -8 -10 -17 -17 -16 -13 -17 -12 -4 4 13 16 21 21 21 13z m1573 -43 c3 -15
-1 -32 -9 -40 -12 -12 -13 -9 -7 19 6 30 5 32 -10 19 -19 -15 -23 -1 -5 17 18
18 25 15 31 -15z m2738 10 c13 -16 12 -17 -3 -4 -10 7 -18 15 -18 17 0 8 8 3
21 -13z m-4351 3 c0 -2 -8 -10 -17 -17 -16 -13 -17 -12 -4 4 13 16 21 21 21
13z m1820 -25 c0 -9 9 -34 21 -55 20 -39 20 -86 -2 -86 -6 0 -8 4 -5 9 3 5 3
23 0 41 -5 23 -9 28 -16 18 -7 -10 -11 -10 -15 0 -7 18 -26 15 -19 -4 3 -9 2
-12 -5 -9 -5 4 -7 14 -4 24 3 12 -1 17 -14 17 -16 0 -17 -4 -10 -25 5 -13 8
-26 5 -28 -2 -3 -7 5 -11 16 -3 12 -11 21 -16 21 -5 0 -3 -16 5 -35 8 -19 13
-35 10 -35 -3 0 -11 14 -18 32 -12 28 -11 36 8 73 18 37 25 42 54 43 23 0 32
-4 32 -17z m783 -6 c-3 -9 -8 -14 -10 -11 -3 3 -2 9 2 15 9 16 15 13 8 -4z
m-480 -55 c25 -53 25 -56 9 -84 -9 -16 -28 -36 -42 -45 -22 -14 -22 -12 8 26
27 35 30 42 15 42 -10 0 -30 2 -46 5 -16 2 -33 -2 -41 -10 -12 -11 -15 -11
-20 1 -3 8 -1 15 5 15 6 0 7 5 3 11 -5 8 -10 6 -16 -5 -11 -20 4 -53 40 -85
15 -13 20 -20 12 -16 -28 15 -62 50 -72 75 -8 20 -4 35 18 75 25 47 30 50 64
50 34 0 38 -3 63 -55z m247 50 c16 9 21 8 25 -5 3 -8 7 -22 10 -30 2 -8 0 -15
-5 -15 -6 0 -10 3 -10 8 0 4 -16 7 -35 8 -28 0 -35 -3 -35 -19 0 -17 2 -18 17
-6 13 11 17 11 20 1 3 -6 10 -9 16 -6 7 4 2 -4 -11 -17 l-23 -24 -19 25 -18
24 -13 -26 c-10 -23 -9 -32 10 -64 17 -29 19 -34 5 -23 -9 8 -22 27 -29 42
-10 24 -8 35 14 81 22 44 29 52 44 44 10 -5 25 -5 37 2z m110 -21 c0 8 3 12 6
8 3 -3 3 -11 -1 -17 -8 -14 -45 20 -37 34 3 5 11 -2 18 -15 7 -13 13 -18 14
-10z m-2585 -19 c-3 -5 -16 -15 -28 -21 -21 -10 -21 -9 2 10 25 23 36 27 26
11z m20 -36 c-26 -20 -55 -36 -55 -30 0 5 63 46 70 46 3 -1 -4 -8 -15 -16z
m-76 2 c-3 -3 -54 -37 -114 -77 -61 -39 -130 -88 -155 -108 -25 -19 -39 -28
-31 -18 18 23 95 79 205 150 79 50 110 67 95 53z m2598 -28 c-3 -8 -6 -5 -6 6
-1 11 2 17 5 13 3 -3 4 -12 1 -19z m-465 -52 c21 -37 25 -52 17 -65 -9 -14
-10 -13 -6 4 5 24 -12 43 -33 37 -12 -3 -12 -2 -1 6 10 7 11 14 2 31 -11 20
-39 25 -51 9 -8 -11 -33 8 -26 20 3 5 21 9 38 8 28 -1 37 -8 60 -50z m2649 2
l24 -20 -31 17 c-17 10 -41 26 -55 37 l-24 20 31 -17 c17 -10 41 -26 55 -37z
m-2544 23 c-1 -19 -27 -18 -27 1 0 5 5 6 10 3 6 -3 10 -1 10 4 0 6 2 11 4 11
3 0 4 -9 3 -19z m177 -4 c3 -13 1 -15 -7 -9 -13 9 -31 9 -64 -3 -21 -7 -28
-17 -24 -38 1 -5 -3 -6 -8 -3 -5 4 -15 -2 -21 -11 -16 -25 -9 -5 15 43 19 38
23 41 62 40 32 -1 43 -5 47 -19z m162 -15 c-17 -16 -18 -16 -5 5 7 12 15 20
18 17 3 -2 -3 -12 -13 -22z m-2626 -6 c0 -1 -31 -24 -70 -50 -38 -25 -70 -44
-70 -41 0 4 131 95 137 95 2 0 3 -2 3 -4z m2425 -6 c-3 -5 -12 -10 -18 -10 -7
0 -6 4 3 10 19 12 23 12 15 0z m2508 -58 c26 -19 47 -36 47 -39 0 -2 -27 15
-60 38 -33 23 -60 44 -60 46 0 5 15 -4 73 -45z m-5083 -36 c0 -2 -8 -10 -17
-17 -16 -13 -17 -12 -4 4 13 16 21 21 21 13z m5161 -23 c13 -16 12 -17 -3 -4
-10 7 -18 15 -18 17 0 8 8 3 21 -13z m-5201 -6 c0 -2 -10 -12 -22 -23 l-23
-19 19 23 c18 21 26 27 26 19z m-131 -64 c-30 -32 -67 -74 -83 -93 -15 -19
-23 -26 -18 -14 11 22 140 164 149 164 4 0 -18 -26 -48 -57z m5376 37 c10 -11
16 -20 13 -20 -3 0 -13 9 -23 20 -10 11 -16 20 -13 20 3 0 13 -9 23 -20z
m-5295 -13 c0 -1 -33 -34 -72 -72 l-73 -70 70 73 c64 67 75 77 75 69z m5385
-67 c21 -22 37 -40 34 -40 -3 0 -23 18 -44 40 -21 22 -37 40 -34 40 3 0 23
-18 44 -40z m65 -15 c13 -14 21 -25 18 -25 -2 0 -15 11 -28 25 -13 14 -21 25
-18 25 2 0 15 -11 28 -25z m-877 -387 l274 -306 104 -199 c299 -572 323 -622
267 -553 -11 14 -79 89 -151 168 -72 79 -132 150 -133 158 -4 24 -157 217
-314 394 -82 93 -390 430 -453 497 l-40 42 62 68 c33 37 61 72 61 78 0 13 7 6
323 -347z m-3455 271 l62 -66 -122 -133 c-339 -368 -637 -713 -682 -789 -9
-16 102 98 511 524 116 121 224 231 239 245 16 13 -9 -16 -56 -65 -47 -49 -88
-91 -92 -93 -14 -6 -8 -19 8 -19 9 0 66 54 127 119 61 65 115 118 121 118 21
0 -574 -604 -768 -779 -81 -74 -205 -196 -274 -272 -69 -76 -127 -137 -129
-135 -4 4 81 171 270 531 134 255 86 193 497 654 113 126 210 229 215 228 6
-1 38 -32 73 -68z m1129 -28 c43 -26 102 -60 131 -75 28 -14 52 -28 52 -31 0
-10 -140 62 -218 112 -29 18 -58 30 -64 27 -7 -4 -8 -2 -4 4 11 18 19 15 103
-37z m-622 8 c11 -16 -1 -22 -30 -15 -14 4 -23 11 -20 16 8 13 42 13 50 -1z
m2085 2 c0 -10 -30 -24 -37 -17 -3 3 -2 9 2 15 8 13 35 15 35 2z m20 -136
c-24 -25 -46 -45 -49 -45 -3 0 15 20 39 45 24 25 46 45 49 45 3 0 -15 -20 -39
-45z m-2110 -41 c41 -42 65 -70 52 -62 -21 14 -138 138 -130 138 2 0 37 -34
78 -76z m-410 63 c0 -2 -12 -14 -27 -28 l-28 -24 24 28 c23 25 31 32 31 24z
m3398 -531 c114 -120 206 -223 204 -228 -1 -5 2 -7 7 -4 9 6 113 -105 106
-113 -13 -13 -714 677 -818 804 -26 33 -8 18 55 -44 53 -51 98 -89 101 -84 3
5 -33 52 -79 104 -113 125 161 -156 424 -435z m959 462 c-3 -7 -5 -2 -5 12 0
14 2 19 5 13 2 -7 2 -19 0 -25z m-1907 -31 c0 -1 -33 -34 -72 -72 l-73 -70 70
73 c64 67 75 77 75 69z m-1830 -172 c41 -39 104 -97 140 -129 42 -38 47 -44
15 -18 -51 41 -233 206 -270 245 -33 35 32 -20 115 -98z m-1960 45 c-6 -11
-13 -20 -16 -20 -2 0 0 9 6 20 6 11 13 20 16 20 2 0 0 -9 -6 -20z m2815 -37
l18 -28 -21 19 c-12 11 -22 23 -22 28 0 14 7 9 25 -19z m765 -36 c0 -2 -12
-14 -27 -28 l-28 -24 24 28 c23 25 31 32 31 24z m-1354 -38 c3 -6 1 -16 -4
-21 -13 -13 -45 8 -36 23 7 12 31 11 40 -2z m554 -80 c0 -68 -3 -88 -12 -83
-7 4 -33 13 -59 18 l-47 11 57 72 c31 40 57 72 59 73 1 0 2 -41 2 -91z m593
84 c3 -5 -1 -13 -8 -20 -14 -13 -41 0 -31 16 8 13 33 15 39 4z m117 -46 c0 -2
-10 -12 -22 -23 l-23 -19 19 23 c18 21 26 27 26 19z m-60 -51 c0 -2 -8 -10
-17 -17 -16 -13 -17 -12 -4 4 13 16 21 21 21 13z m-1229 -53 c13 -16 12 -17
-3 -4 -17 13 -22 21 -14 21 2 0 10 -8 17 -17z m295 -244 c21 -24 -189 146
-245 199 -20 18 23 -14 95 -72 71 -58 139 -115 150 -127z m427 176 c-3 -9 -8
-14 -10 -11 -3 3 -2 9 2 15 9 16 15 13 8 -4z m-20 -40 c-3 -9 -8 -14 -10 -11
-3 3 -2 9 2 15 9 16 15 13 8 -4z m297 -29 c0 -2 -8 -10 -17 -17 -16 -13 -17
-12 -4 4 13 16 21 21 21 13z m-350 -76 c-11 -22 -23 -40 -25 -40 -3 0 4 18 15
40 11 22 23 40 25 40 3 0 -4 -18 -15 -40z m-245 -130 c38 -38 67 -70 64 -70
-2 0 -36 32 -74 70 -38 39 -67 70 -64 70 2 0 36 -31 74 -70z m198 45 c-3 -9
-8 -14 -10 -11 -3 3 -2 9 2 15 9 16 15 13 8 -4z m-943 -9 c0 -2 -8 -10 -17
-17 -16 -13 -17 -12 -4 4 13 16 21 21 21 13z m1881 -23 c13 -16 12 -17 -3 -4
-17 13 -22 21 -14 21 2 0 10 -8 17 -17z m-964 -135 c-2 -13 -4 -3 -4 22 0 25
2 35 4 23 2 -13 2 -33 0 -45z m-67 7 c13 -14 21 -25 18 -25 -2 0 -15 11 -28
25 -13 14 -21 25 -18 25 2 0 15 -11 28 -25z m41 -52 c13 -16 12 -17 -3 -4 -10
7 -18 15 -18 17 0 8 8 3 21 -13z m-152 -260 c-46 -77 -71 -98 -117 -99 -23 0
-42 0 -42 0 0 1 25 28 55 60 30 32 55 55 55 52 0 -4 -19 -27 -41 -51 l-42 -45
28 0 c30 0 69 36 100 93 10 20 21 34 23 32 2 -2 -6 -21 -19 -42z m181 -52 l0
-78 -27 6 c-26 5 -26 6 -5 9 20 3 22 9 22 73 0 38 2 69 5 69 3 0 5 -35 5 -79z
m305 -34 l40 -4 -41 -1 c-33 -2 -45 3 -65 26 l-24 27 25 -22 c14 -12 43 -23
65 -26z m-487 -60 c111 -94 182 -209 182 -295 0 -31 -3 -52 -7 -49 -3 4 -5 26
-5 49 1 24 -3 57 -10 73 -20 52 -94 149 -158 208 -72 67 -73 75 -2 14z m412
30 c0 -2 -15 -16 -32 -33 l-33 -29 29 33 c28 30 36 37 36 29z m-90 -90 c0 -2
-12 -14 -27 -28 l-28 -24 24 28 c23 25 31 32 31 24z m-269 -74 c13 -16 12 -17
-3 -4 -10 7 -18 15 -18 17 0 8 8 3 21 -13z m99 -143 c6 -11 8 -20 6 -20 -3 0
-10 9 -16 20 -6 11 -8 20 -6 20 3 0 10 -9 16 -20z"/>
<path d="M4149 7479 l-24 -20 28 17 c15 9 27 18 27 20 0 8 -8 4 -31 -17z"/>
<path d="M4198 7383 c6 -2 18 -2 25 0 6 3 1 5 -13 5 -14 0 -19 -2 -12 -5z"/>
<path d="M3980 7370 c-9 -6 -10 -10 -3 -10 6 0 15 5 18 10 8 12 4 12 -15 0z"/>
<path d="M3851 7354 c0 -11 3 -14 6 -6 3 7 2 16 -1 19 -3 4 -6 -2 -5 -13z"/>
<path d="M3831 7334 c0 -11 3 -14 6 -6 3 7 2 16 -1 19 -3 4 -6 -2 -5 -13z"/>
<path d="M3846 7313 c-6 -14 -5 -15 5 -6 7 7 10 15 7 18 -3 3 -9 -2 -12 -12z"/>
<path d="M4058 7283 c7 -3 16 -2 19 1 4 3 -2 6 -13 5 -11 0 -14 -3 -6 -6z"/>
<path d="M3722 7191 c-11 -7 -11 -9 0 -14 9 -3 15 1 15 9 0 8 -1 14 -1 14 -1
0 -7 -4 -14 -9z"/>
<path d="M3300 7350 c-8 -5 -10 -10 -5 -10 6 0 17 5 25 10 8 5 11 10 5 10 -5
0 -17 -5 -25 -10z"/>
<path d="M4830 7350 c8 -5 20 -10 25 -10 6 0 3 5 -5 10 -8 5 -19 10 -25 10 -5
0 -3 -5 5 -10z"/>
<path d="M3170 7240 c-19 -11 -30 -19 -25 -19 6 0 26 8 45 19 19 11 31 19 25
19 -5 0 -26 -8 -45 -19z"/>
<path d="M3045 7170 c-39 -26 -25 -26 17 0 18 11 29 20 23 20 -5 0 -23 -9 -40
-20z"/>
<path d="M2923 7089 c-35 -22 -46 -37 -15 -20 22 13 58 40 52 41 -3 0 -20 -10
-37 -21z"/>
<path d="M5105 7159 c55 -33 114 -71 130 -83 17 -12 37 -26 45 -31 13 -7 13
-6 0 8 -21 21 -250 167 -263 167 -6 0 34 -27 88 -61z"/>
<path d="M4000 7011 c-53 -54 -46 -55 13 -2 23 21 56 64 45 60 -2 -1 -28 -27
-58 -58z"/>
<path d="M3890 6915 c-8 -9 -8 -15 -2 -15 12 0 26 19 19 26 -2 2 -10 -2 -17
-11z"/>
<path d="M5381 6957 c2 -2 36 -32 74 -67 l70 -64 -65 67 c-35 37 -69 67 -74
67 -5 0 -7 -1 -5 -3z"/>
<path d="M1267 6772 c-21 -23 -22 -39 -3 -23 12 10 15 6 21 -18 3 -17 3 -36
-1 -43 -5 -10 -4 -10 6 -1 8 7 10 22 4 45 -4 18 -7 39 -5 46 3 17 -3 15 -22
-6z"/>
<path d="M6863 6784 c3 -6 0 -36 -7 -67 -7 -31 -10 -57 -5 -57 4 0 10 14 14
30 4 18 13 30 23 31 14 0 15 2 2 7 -17 8 -25 32 -11 32 5 0 12 -6 14 -12 3 -8
6 -8 6 -2 1 6 -9 19 -21 30 -12 10 -19 14 -15 8z"/>
<path d="M6876 6695 c-3 -8 -1 -15 4 -15 6 0 10 7 10 15 0 8 -2 15 -4 15 -2 0
-6 -7 -10 -15z"/>
<path d="M6796 6553 c-6 -14 -5 -15 5 -6 7 7 10 15 7 18 -3 3 -9 -2 -12 -12z"/>
<path d="M6826 6555 c-3 -8 -1 -15 3 -15 5 0 11 7 15 15 3 8 1 15 -3 15 -5 0
-11 -7 -15 -15z"/>
<path d="M1050 6655 c19 -19 39 -35 46 -35 6 0 24 16 38 35 l27 35 -72 0 -73
0 34 -35z"/>
<path d="M1147 6642 c-15 -15 -27 -33 -27 -38 0 -5 18 -27 39 -48 l39 -38 -5
63 c-3 35 -10 66 -15 67 -4 2 -6 8 -2 13 10 17 -2 9 -29 -19z m33 -38 c0 -23
-5 -34 -14 -34 -23 0 -28 18 -10 28 11 6 15 17 11 31 -3 11 -1 19 4 15 5 -3 9
-21 9 -40z"/>
<path d="M6965 6631 c-4 -23 -4 -45 -1 -48 3 -4 6 5 6 18 0 38 14 53 30 34 10
-11 10 -19 3 -23 -7 -5 -7 -11 2 -19 7 -7 17 -8 26 -2 11 7 6 16 -22 45 l-37
36 -7 -41z"/>
<path d="M6955 6550 c-4 -12 -5 -24 -2 -27 3 -2 8 5 12 17 4 12 5 24 2 27 -3
2 -8 -5 -12 -17z"/>
<path d="M4082 5670 c1 -118 3 -200 5 -182 2 17 9 32 14 32 6 0 7 -4 4 -10
-13 -20 2 -9 57 44 34 33 52 57 45 60 -7 3 -3 4 8 1 37 -9 48 9 20 33 -14 12
-29 22 -33 22 -5 0 -9 6 -9 13 0 6 -19 40 -42 75 -24 35 -49 78 -56 95 -13 28
-14 8 -13 -183z m15 128 c-3 -8 -6 -5 -6 6 -1 11 2 17 5 13 3 -3 4 -12 1 -19z
m8 -65 c-4 -13 -3 -14 10 -3 17 14 21 0 4 -17 -9 -9 -7 -10 9 -6 12 3 19 9 16
14 -3 5 2 6 11 3 13 -5 13 -9 -5 -24 -24 -21 -26 -46 -5 -54 12 -4 13 -2 6 13
-7 12 -6 22 1 29 20 20 30 13 23 -17 -4 -18 -2 -32 5 -36 9 -5 10 -1 5 14 -5
15 -3 19 8 16 15 -6 19 -35 4 -35 -5 0 -7 -6 -4 -14 3 -7 -8 -26 -23 -41 l-29
-28 4 33 c5 41 -12 80 -27 59 -6 -10 -7 -7 -3 11 5 19 4 22 -4 10 -16 -22 -13
-40 6 -40 9 0 13 -3 10 -6 -3 -4 -2 -15 4 -25 7 -13 6 -19 -1 -19 -6 0 -8 -4
-5 -10 9 -15 -4 -12 -21 5 -11 11 -15 37 -13 105 1 53 5 87 11 84 5 -3 7 -13
3 -21z"/>
<path d="M4100 5595 c0 -8 4 -15 10 -15 5 0 7 7 4 15 -4 8 -8 15 -10 15 -2 0
-4 -7 -4 -15z"/>
<path d="M1545 4961 c-9 -16 9 -20 23 -5 10 12 10 14 -2 14 -8 0 -17 -4 -21
-9z"/>
<path d="M1532 4910 c0 -14 2 -19 5 -12 2 6 2 18 0 25 -3 6 -5 1 -5 -13z"/>
<path d="M5338 5861 c-9 -23 -13 -41 -8 -41 5 0 13 12 18 28 l9 27 8 -38 c5
-25 3 -42 -5 -52 -13 -15 -35 -21 -26 -7 2 4 1 14 -5 22 -6 11 -9 6 -9 -17 0
-39 6 -40 44 -10 l29 23 -20 53 -19 52 -16 -40z"/>
<path d="M5386 5867 c3 -10 9 -15 12 -12 3 3 0 11 -7 18 -10 9 -11 8 -5 -6z"/>
<path d="M5400 5834 c0 -6 7 -19 16 -30 14 -18 14 -18 3 6 -14 31 -19 36 -19
24z"/>
<path d="M5530 5746 c0 -2 7 -7 16 -10 8 -3 12 -2 9 4 -6 10 -25 14 -25 6z"/>
<path d="M5700 5716 c0 -3 9 -10 20 -16 11 -6 20 -8 20 -6 0 3 -9 10 -20 16
-11 6 -20 8 -20 6z"/>
<path d="M5760 5606 c0 -2 8 -10 18 -17 15 -13 16 -12 3 4 -13 16 -21 21 -21
13z"/>
<path d="M5800 5576 c0 -2 8 -10 18 -17 15 -13 16 -12 3 4 -13 16 -21 21 -21
13z"/>
<path d="M3571 5334 c-25 -32 -15 -65 25 -76 52 -14 87 48 48 86 -23 23 -50
20 -73 -10z m63 -2 c2 -4 -3 -13 -13 -19 -20 -13 -47 -1 -37 16 8 13 42 15 50
3z"/>
<path d="M3020 5040 c-25 -25 -26 -52 -2 -73 24 -22 55 -21 75 1 22 24 21 55
-1 75 -25 22 -48 21 -72 -3z m55 -11 c9 -13 5 -16 -20 -21 -12 -2 -21 3 -23
15 -4 19 32 25 43 6z"/>
<path d="M2488 4883 c7 -3 16 -2 19 1 4 3 -2 6 -13 5 -11 0 -14 -3 -6 -6z"/>
<path d="M2298 4843 c7 -3 16 -2 19 1 4 3 -2 6 -13 5 -11 0 -14 -3 -6 -6z"/>
<path d="M2240 4836 c0 -2 19 -19 43 -37 l42 -32 -38 37 c-36 34 -47 42 -47
32z"/>
<path d="M2826 2634 c-7 -19 27 -71 48 -71 17 0 8 22 -24 64 -15 20 -19 21
-24 7z m42 -59 c-3 -3 -9 2 -12 12 -6 14 -5 15 5 6 7 -7 10 -15 7 -18z"/>
<path d="M2886 2525 c20 -31 28 -33 14 -2 -11 21 -10 21 4 3 9 -10 13 -23 10
-27 -7 -12 46 -80 56 -74 10 6 20 -7 25 -36 5 -27 24 -49 38 -46 7 1 11 -3 10
-9 -1 -7 7 -14 17 -17 25 -7 25 2 0 28 -35 34 -69 77 -113 142 -24 37 -49 62
-60 63 -16 0 -16 -2 -1 -25z m74 -75 c6 -11 8 -20 6 -20 -3 0 -10 9 -16 20 -6
11 -8 20 -6 20 3 0 10 -9 16 -20z"/>
<path d="M3150 2200 c56 -60 104 -110 107 -110 3 0 3 7 -1 15 -3 8 -1 15 5 15
6 0 3 7 -5 16 -9 8 -20 13 -25 10 -8 -6 -51 26 -51 37 0 4 8 4 18 0 9 -3 -5
17 -32 45 -27 28 -54 48 -59 45 -6 -3 -7 -1 -3 5 7 12 -9 25 -38 29 -11 2 21
-39 84 -107z m-15 40 c10 -11 16 -20 13 -20 -3 0 -13 9 -23 20 -10 11 -16 20
-13 20 3 0 13 -9 23 -20z"/>
<path d="M3445 1951 c-3 -6 1 -11 9 -11 9 0 16 -5 16 -11 0 -5 -6 -7 -12 -3
-7 4 -10 3 -6 -1 5 -5 20 -10 34 -11 14 -2 25 -2 23 -1 -2 1 -16 12 -30 25
-17 15 -29 20 -34 13z"/>
<path d="M3634 1809 c14 -11 24 -25 21 -29 -3 -5 5 -14 17 -20 22 -11 22 -10
4 4 -22 18 -5 22 25 6 39 -21 17 -1 -31 29 -58 36 -75 40 -36 10z"/>
<path d="M3610 1806 c0 -2 8 -10 18 -17 15 -13 16 -12 3 4 -13 16 -21 21 -21
13z"/>
<path d="M3750 1727 c0 -23 15 -28 36 -12 10 8 14 15 7 15 -6 0 -18 3 -27 6
-10 4 -16 1 -16 -9z"/>
<path d="M3930 1547 c0 -13 72 -158 77 -153 2 2 -14 39 -36 82 -22 44 -40 75
-41 71z"/>
<path d="M4300 5567 c0 -2 15 -16 33 -33 l32 -29 -29 33 c-28 30 -36 37 -36
29z"/>
<path d="M4253 5518 c-15 -20 -25 -38 -20 -38 3 0 12 11 21 25 17 26 16 35 -1
13z"/>
<path d="M4220 5461 c0 -6 4 -13 10 -16 6 -3 7 1 4 9 -7 18 -14 21 -14 7z"/>
<path d="M4250 5436 c0 -3 15 -15 33 -27 23 -17 28 -18 18 -6 -14 18 -51 42
-51 33z"/>
<path d="M4490 5416 c0 -2 8 -10 18 -17 15 -13 16 -12 3 4 -13 16 -21 21 -21
13z"/>
<path d="M4496 5337 c-19 -29 -11 -61 19 -77 54 -29 103 49 53 84 -31 22 -55
20 -72 -7z m58 -6 c8 -12 -21 -34 -34 -26 -17 11 -11 35 9 35 11 0 22 -4 25
-9z"/>
<path d="M4594 5341 c7 -11 46 -35 46 -28 0 3 -12 12 -26 22 -15 9 -23 12 -20
6z"/>
<path d="M4757 5239 c7 -7 15 -10 18 -7 3 3 -2 9 -12 12 -14 6 -15 5 -6 -5z"/>
<path d="M4610 5186 c0 -3 9 -10 20 -16 11 -6 20 -8 20 -6 0 3 -9 10 -20 16
-11 6 -20 8 -20 6z"/>
<path d="M4851 5186 c2 -2 15 -9 29 -15 24 -11 24 -11 6 3 -16 13 -49 24 -35
12z"/>
<path d="M5020 5101 c19 -10 46 -21 60 -25 14 -3 3 5 -25 18 -58 29 -87 34
-35 7z"/>
<path d="M5044 5035 c-10 -16 -13 -32 -8 -47 4 -13 7 -25 7 -28 -1 -3 14 -6
32 -7 60 -5 90 59 43 91 -32 23 -55 20 -74 -9z m66 -5 c0 -15 -38 -32 -45 -20
-3 5 -3 15 0 20 8 13 45 13 45 0z"/>
<path d="M5168 5037 c12 -7 20 -16 17 -19 -4 -3 -1 -9 6 -14 8 -4 10 -3 5 4
-10 16 -6 15 59 -9 31 -12 58 -19 61 -16 2 2 -30 17 -73 33 -97 36 -103 38
-75 21z"/>
<path d="M4891 5026 c2 -2 15 -9 29 -15 24 -11 24 -11 6 3 -16 13 -49 24 -35
12z"/>
<path d="M5210 4992 c0 -5 7 -9 15 -9 8 0 12 4 9 9 -3 4 -9 8 -15 8 -5 0 -9
-4 -9 -8z"/>
<path d="M5000 4970 c8 -5 20 -10 25 -10 6 0 3 5 -5 10 -8 5 -19 10 -25 10 -5
0 -3 -5 5 -10z"/>
<path d="M5356 4965 c17 -8 44 -16 60 -20 l29 -5 -30 14 c-16 7 -43 16 -60 19
l-30 6 31 -14z"/>
<path d="M5090 4930 c8 -5 20 -10 25 -10 6 0 3 5 -5 10 -8 5 -19 10 -25 10 -5
0 -3 -5 5 -10z"/>
<path d="M5535 4911 c11 -4 36 -11 55 -15 24 -4 29 -3 15 3 -11 4 -36 11 -55
15 -24 4 -29 3 -15 -3z"/>
<path d="M5170 4900 c8 -5 20 -10 25 -10 6 0 3 5 -5 10 -8 5 -19 10 -25 10 -5
0 -3 -5 5 -10z"/>
<path d="M5400 4889 c0 -5 5 -7 10 -4 6 3 10 8 10 11 0 2 -4 4 -10 4 -5 0 -10
-5 -10 -11z"/>
<path d="M5513 4893 c-17 -6 -16 -19 3 -49 18 -27 36 -20 55 20 8 17 7 17 -11
-3 -18 -21 -23 -22 -31 -10 -13 20 -11 42 3 33 7 -4 8 -3 4 4 -4 7 -8 12 -9
11 -1 0 -8 -3 -14 -6z"/>
<path d="M5220 4880 c8 -5 22 -10 30 -10 13 0 13 1 0 10 -8 5 -22 10 -30 10
-13 0 -13 -1 0 -10z"/>
<path d="M5655 4879 c17 -5 41 -12 55 -15 13 -3 55 -12 93 -20 37 -8 71 -14
73 -14 3 0 2 -4 -1 -10 -3 -5 -16 -10 -27 -10 -12 0 -18 -3 -15 -7 4 -3 -1
-15 -10 -26 -10 -11 3 -5 29 14 26 19 47 36 48 39 0 5 -188 47 -250 56 -20 3
-19 2 5 -7z"/>
<path d="M5620 4850 c-9 -6 -10 -10 -3 -10 6 0 15 5 18 10 8 12 4 12 -15 0z"/>
<path d="M5660 4850 c8 -5 20 -10 25 -10 6 0 3 5 -5 10 -8 5 -19 10 -25 10 -5
0 -3 -5 5 -10z"/>
<path d="M5446 4841 c-3 -5 3 -11 13 -14 14 -3 18 -1 14 9 -6 16 -19 18 -27 5z"/>
<path d="M5705 4838 c7 -17 -3 -23 -27 -19 -5 0 -8 -8 -8 -20 0 -13 -4 -18
-12 -13 -6 4 -8 3 -4 -4 3 -5 0 -12 -6 -15 -7 -3 -3 -4 9 -4 12 1 19 5 16 10
-3 5 0 7 8 5 8 -3 13 -12 13 -21 -1 -9 4 -13 12 -10 18 7 18 11 -1 29 -8 9
-15 20 -15 25 0 15 17 10 24 -6 3 -8 10 -15 16 -15 6 0 4 7 -5 17 -15 15 -15
17 -1 25 9 5 21 6 28 2 7 -5 8 -3 4 5 -5 7 -14 10 -21 7 -7 -2 -18 1 -24 7 -9
9 -11 8 -6 -5z"/>
<path d="M5616 4821 c-3 -5 1 -11 9 -15 8 -3 15 -1 15 4 0 13 -18 22 -24 11z"/>
<path d="M5773 4817 c0 -8 6 -14 14 -14 9 0 10 4 2 14 -6 7 -12 13 -14 13 -1
0 -2 -6 -2 -13z"/>
<path d="M5435 4810 c3 -5 20 -13 38 -19 18 -5 41 -12 52 -17 11 -4 17 -4 14
0 -10 11 -110 45 -104 36z"/>
<path d="M5569 4803 c0 -5 -2 -15 -4 -24 -2 -12 20 -23 87 -46 l89 -31 27 25
27 24 -27 -16 c-26 -16 -31 -16 -83 0 -30 10 -55 21 -55 25 0 3 -10 6 -22 6
-18 -1 -22 4 -21 22 2 12 -2 22 -7 22 -6 0 -10 -3 -11 -7z"/>
<path d="M5730 4806 c0 -2 7 -7 16 -10 8 -3 12 -2 9 4 -6 10 -25 14 -25 6z"/>
<path d="M5756 4775 c-11 -8 -15 -15 -9 -15 6 0 16 7 23 15 16 19 11 19 -14 0z"/>
<path d="M5725 4740 c-3 -5 -1 -10 4 -10 6 0 11 5 11 10 0 6 -2 10 -4 10 -3 0
-8 -4 -11 -10z"/>
<path d="M5310 2656 c-17 -28 -37 -60 -45 -72 -13 -17 -13 -21 -1 -21 8 0 12
6 8 15 -3 10 -1 13 6 8 10 -6 52 46 80 100 9 16 8 21 -4 21 -8 0 -28 -23 -44
-51z m31 21 c-10 -9 -11 -8 -5 6 3 10 9 15 12 12 3 -3 0 -11 -7 -18z m-21 -37
c-6 -11 -13 -20 -16 -20 -2 0 0 9 6 20 6 11 13 20 16 20 2 0 0 -9 -6 -20z"/>
<path d="M5255 2540 c-4 -6 -10 -8 -14 -6 -4 3 -18 -9 -31 -26 -12 -17 -17
-27 -10 -23 10 6 12 4 6 -10 -5 -15 -4 -16 8 -6 8 7 12 19 9 27 -3 9 0 14 7
12 6 -2 19 7 27 20 9 12 13 22 10 22 -3 0 -9 -5 -12 -10z"/>
<path d="M5185 2440 c-4 -6 -11 -7 -17 -4 -7 4 -8 2 -4 -5 6 -9 11 -9 22 0 14
11 18 19 10 19 -3 0 -8 -5 -11 -10z"/>
<path d="M5064 2323 c-32 -38 -62 -69 -66 -71 -5 -2 -8 -8 -8 -13 0 -6 5 -7
12 -3 7 4 8 3 4 -4 -15 -25 5 -10 43 30 23 25 35 46 29 49 -7 4 -6 9 1 13 6 4
11 4 11 0 0 -3 7 -1 15 6 8 7 12 16 9 22 -3 5 0 15 6 23 7 8 10 15 8 15 -2 0
-31 -30 -64 -67z m46 23 c0 -3 -4 -8 -10 -11 -5 -3 -10 -1 -10 4 0 6 5 11 10
11 6 0 10 -2 10 -4z m-69 -79 c-19 -18 -30 -25 -26 -17 11 21 49 58 54 53 3
-2 -10 -18 -28 -36z"/>
<path d="M4973 2217 c4 -12 2 -14 -10 -10 -12 5 -15 2 -10 -10 4 -12 2 -14
-10 -10 -12 5 -15 2 -10 -10 3 -9 1 -19 -5 -23 -7 -5 -8 -2 -3 7 4 8 -8 -1
-28 -20 -20 -19 -35 -39 -34 -45 1 -6 -4 -10 -11 -8 -8 1 -11 -1 -8 -6 3 -5
-6 -20 -19 -32 -25 -24 -35 -16 -12 10 6 8 -16 -10 -51 -39 -34 -30 -60 -56
-57 -59 2 -3 -1 -12 -8 -20 -10 -13 -9 -14 11 -3 12 7 20 16 17 22 -4 5 -1 8
7 7 7 -2 12 3 10 10 -1 8 2 11 7 8 12 -8 246 205 246 224 0 7 -6 15 -14 18
-10 3 -12 0 -8 -11z m-53 -70 c0 -2 -12 -14 -27 -28 l-28 -24 24 28 c23 25 31
32 31 24z"/>
<path d="M2680 5107 c0 -2 15 -16 33 -33 l32 -29 -29 33 c-28 30 -36 37 -36
29z"/>
<path d="M5429 5078 c-17 -24 -18 -29 -6 -19 18 14 42 51 33 51 -3 0 -15 -15
-27 -32z"/>
<path d="M5439 5053 c-7 -10 -10 -15 -5 -11 5 4 21 1 37 -7 38 -20 40 -19 27
10 -11 25 -28 34 -28 15 0 -5 -5 -10 -11 -10 -5 0 -7 5 -4 10 10 17 -2 11 -16
-7z"/>
<path d="M3678 3924 c-32 -25 -58 -48 -58 -50 0 -3 27 16 60 42 53 41 67 54
58 54 -2 0 -29 -21 -60 -46z"/>
<path d="M3589 3853 c-13 -16 -12 -17 4 -4 16 13 21 21 13 21 -2 0 -10 -8 -17
-17z"/>
<path d="M5042 4214 c9 -9 21 -15 27 -13 6 2 -2 10 -17 17 -25 11 -25 11 -10
-4z"/>
<path d="M5110 4220 c-9 -6 -10 -10 -3 -10 6 0 15 5 18 10 8 12 4 12 -15 0z"/>
<path d="M5150 4202 c0 -12 19 -26 26 -19 2 2 -2 10 -11 17 -9 8 -15 8 -15 2z"/>
<path d="M4110 4177 c0 -3 12 -12 26 -22 15 -9 23 -12 20 -6 -7 11 -46 35 -46
28z"/>
<path d="M4170 4136 c0 -2 8 -10 18 -17 15 -13 16 -12 3 4 -13 16 -21 21 -21
13z"/>
<path d="M5078 4094 c-8 -9 -27 -17 -41 -17 -14 -1 -23 -5 -21 -9 9 -14 45 -3
66 19 24 26 21 32 -4 7z"/>
<path d="M4838 4013 c7 -3 16 -2 19 1 4 3 -2 6 -13 5 -11 0 -14 -3 -6 -6z"/>
<path d="M4817 3943 c-4 -3 -7 -11 -7 -17 0 -6 5 -5 12 2 6 6 9 14 7 17 -3 3
-9 2 -12 -2z"/>
<path d="M1827 4526 c-15 -24 -46 -65 -68 -92 l-41 -49 44 46 c48 51 103 127
97 134 -3 2 -17 -16 -32 -39z"/>
<path d="M6320 4511 c7 -13 47 -59 89 -101 66 -67 68 -68 16 -11 -34 36 -73
82 -89 101 -17 22 -23 26 -16 11z"/>
<path d="M6510 4316 c0 -2 8 -10 18 -17 15 -13 16 -12 3 4 -13 16 -21 21 -21
13z"/>
<path d="M5434 4131 c7 -11 46 -35 46 -28 0 3 -12 12 -26 22 -15 9 -23 12 -20
6z"/>
<path d="M5161 3814 c0 -11 3 -14 6 -6 3 7 2 16 -1 19 -3 4 -6 -2 -5 -13z"/>
<path d="M5135 3752 c-14 -25 -31 -41 -55 -49 -30 -10 -31 -12 -10 -12 14 0
32 5 41 12 17 13 53 76 47 82 -2 2 -12 -13 -23 -33z"/>
<path d="M5226 3674 c-5 -14 -4 -15 9 -4 17 14 19 20 6 20 -5 0 -12 -7 -15
-16z"/>
<path d="M5031 3664 c0 -11 3 -14 6 -6 3 7 2 16 -1 19 -3 4 -6 -2 -5 -13z"/>
<path d="M4874 3491 c-9 -23 -28 -50 -42 -61 -13 -11 -20 -20 -14 -20 24 0 93
103 78 117 -3 3 -13 -13 -22 -36z"/>
<path d="M4710 3330 c-6 -11 -8 -20 -6 -20 3 0 10 9 16 20 6 11 8 20 6 20 -3
0 -10 -9 -16 -20z"/>
<path d="M4504 3206 c-1 -17 0 -23 3 -14 2 9 11 18 19 20 12 2 11 5 -3 14 -16
10 -18 7 -19 -20z"/>
<path d="M4690 2999 c0 -5 5 -7 10 -4 6 3 10 8 10 11 0 2 -4 4 -10 4 -5 0 -10
-5 -10 -11z"/>
<path d="M2730 3847 c-1 -30 58 -98 85 -97 5 1 -2 7 -17 16 -15 8 -37 31 -47
52 -11 20 -20 33 -21 29z"/>
<path d="M3000 3525 c0 -5 5 -17 10 -25 5 -8 10 -10 10 -5 0 6 -5 17 -10 25
-5 8 -10 11 -10 5z"/>
<path d="M3006 3413 c-6 -14 -5 -15 5 -6 7 7 10 15 7 18 -3 3 -9 -2 -12 -12z"/>
<path d="M3120 3414 c0 -6 7 -19 16 -30 14 -18 14 -18 3 6 -14 31 -19 36 -19
24z"/>
<path d="M3158 3349 c7 -9 11 -23 9 -30 -2 -8 -2 -11 0 -7 3 5 17 6 31 3 15
-3 20 -2 12 1 -8 4 -26 16 -40 28 -13 11 -19 14 -12 5z"/>
<path d="M3003 3215 c0 -8 4 -15 9 -15 5 0 7 -4 4 -9 -3 -5 1 -11 9 -15 21 -8
19 17 -3 37 -16 15 -19 15 -19 2z"/>
<path d="M3310 3210 c0 -9 39 -25 45 -18 2 2 -7 8 -21 15 -13 6 -24 7 -24 3z"/>
<path d="M2980 3183 c1 -14 30 -47 36 -41 6 7 -17 48 -28 48 -5 0 -8 -3 -8 -7z"/>
<path d="M3080 3181 c0 -5 5 -13 10 -16 6 -3 10 -2 10 4 0 5 -4 13 -10 16 -5
3 -10 2 -10 -4z"/>
<path d="M3195 3171 c-3 -5 -1 -12 5 -16 5 -3 10 1 10 9 0 18 -6 21 -15 7z"/>
<path d="M3419 3152 c5 -10 18 -25 28 -33 12 -10 11 -5 -6 19 -24 35 -38 43
-22 14z"/>
<path d="M3052 3111 c-10 -6 -10 -10 3 -21 13 -11 14 -10 9 5 -6 14 -4 16 6
10 9 -5 11 -4 6 3 -8 14 -7 14 -24 3z"/>
<path d="M3530 3074 c0 -8 5 -12 10 -9 6 4 8 11 5 16 -9 14 -15 11 -15 -7z"/>
<path d="M1566 3629 c-19 -15 -26 -28 -22 -42 3 -11 -2 -33 -10 -48 -16 -32
-18 -53 -4 -44 6 3 10 0 10 -7 0 -10 2 -10 8 -1 4 7 27 23 51 35 35 19 47 32
62 73 10 28 19 51 19 53 0 14 -96 -82 -112 -111 -10 -22 -22 -36 -25 -33 -3 3
-1 11 5 19 6 7 16 25 22 41 9 24 8 27 -5 22 -9 -3 -13 -2 -10 4 3 6 17 10 31
10 15 0 23 4 19 10 -4 6 -1 17 5 25 20 24 -12 19 -44 -6z"/>
<path d="M1610 3619 c0 -5 5 -7 10 -4 6 3 10 8 10 11 0 2 -4 4 -10 4 -5 0 -10
-5 -10 -11z"/>
<path d="M5375 3883 c-31 -8 -36 -18 -10 -19 13 -1 26 4 29 12 3 8 4 13 3 13
-1 -1 -11 -3 -22 -6z"/>
<path d="M6590 3598 c0 -19 -2 -20 -11 -8 -19 27 2 -31 33 -93 16 -33 24 -56
17 -51 -9 5 -10 2 -6 -9 4 -12 2 -14 -11 -10 -12 4 -11 0 6 -16 12 -12 20 -26
17 -32 -4 -5 3 -9 14 -9 10 0 28 -3 38 -6 15 -5 15 -4 3 5 -13 9 -13 11 3 11
14 0 16 4 7 19 -17 32 -11 34 15 4 19 -21 27 -25 33 -15 12 18 2 66 -10 54
-11 -11 -66 17 -88 43 -7 8 -17 12 -23 8 -5 -3 -7 -1 -4 4 4 6 0 24 -8 39 -8
16 -12 38 -9 50 3 12 1 25 -5 28 -7 5 -11 -2 -11 -16z m84 -188 c-6 -6 -10 -3
-10 10 0 13 4 16 10 10 7 -7 7 -13 0 -20z"/>
<path d="M6752 3365 c-13 -28 -2 -34 18 -10 9 11 10 19 3 26 -6 6 -13 1 -21
-16z"/>
<path d="M6710 3371 c0 -5 6 -12 13 -14 7 -3 5 -6 -5 -6 -19 -1 -23 -18 -9
-40 7 -11 10 -11 17 0 14 23 13 57 -2 63 -8 3 -14 1 -14 -3z"/>
<path d="M2624 3687 c3 -10 6 -23 6 -28 0 -5 5 -9 10 -9 14 0 12 13 -6 36 -14
17 -15 17 -10 1z"/>
<path d="M2716 3555 c4 -8 11 -15 16 -15 6 0 5 6 -2 15 -7 8 -14 15 -16 15 -2
0 -1 -7 2 -15z"/>
<path d="M2720 3481 c0 -10 19 -25 25 -20 1 2 -3 10 -11 17 -8 7 -14 8 -14 3z"/>
<path d="M4935 3220 c3 -5 8 -10 11 -10 2 0 4 5 4 10 0 6 -5 10 -11 10 -5 0
-7 -4 -4 -10z"/>
<path d="M4872 3199 c-15 -23 -15 -39 -2 -39 6 0 10 9 10 19 0 11 5 21 12 23
7 3 8 7 2 11 -5 3 -15 -3 -22 -14z"/>
<path d="M3642 2994 c10 -10 20 -15 24 -12 3 4 -5 12 -18 18 -22 12 -22 12 -6
-6z"/>
<path d="M3574 2913 c-30 -41 -39 -62 -15 -33 23 27 44 60 38 60 -2 0 -12 -12
-23 -27z"/>
<path d="M3516 2792 c-3 -5 1 -9 9 -9 8 0 12 4 9 9 -3 4 -7 8 -9 8 -2 0 -6 -4
-9 -8z"/>
<path d="M3565 2760 c3 -5 8 -10 11 -10 2 0 4 5 4 10 0 6 -5 10 -11 10 -5 0
-7 -4 -4 -10z"/>
<path d="M3152 3054 c-14 -15 -5 -41 23 -64 29 -24 44 -21 31 5 -6 13 -15 21
-19 18 -5 -3 -13 1 -18 8 -13 22 -11 29 9 23 10 -4 13 -2 7 3 -5 4 -12 11 -15
15 -3 3 -11 0 -18 -8z"/>
<path d="M3203 3040 c2 -8 12 -16 23 -17 13 -2 15 -1 4 4 -8 3 -19 11 -23 17
-6 7 -7 6 -4 -4z"/>
<path d="M3210 3001 c0 -11 39 -26 47 -17 8 8 3 12 -24 20 -13 4 -23 3 -23 -3z"/>
<path d="M3643 2759 c-32 -12 -29 -21 3 -13 18 5 25 3 20 -4 -3 -6 -2 -13 3
-17 6 -3 8 4 6 16 -6 28 -6 28 -32 18z"/>
<path d="M3920 2720 c8 -5 20 -10 25 -10 6 0 3 5 -5 10 -8 5 -19 10 -25 10 -5
0 -3 -5 5 -10z"/>
<path d="M3965 2680 c-3 -6 1 -7 9 -4 18 7 21 14 7 14 -6 0 -13 -4 -16 -10z"/>
<path d="M5590 2146 c0 -2 8 -10 18 -17 15 -13 16 -12 3 4 -13 16 -21 21 -21
13z"/>
<path d="M2331 1786 c-28 -28 -49 -54 -48 -59 1 -4 -31 -44 -72 -90 l-73 -82
93 95 c154 157 179 187 164 187 -8 0 -37 -23 -64 -51z m59 41 c0 -1 -24 -25
-52 -52 l-53 -50 50 53 c46 48 55 57 55 49z"/>
<path d="M2020 1453 l-95 -98 98 95 c90 88 102 100 94 100 -1 0 -45 -44 -97
-97z"/>
<path d="M5687 1903 c-4 -6 11 -27 32 -47 21 -21 41 -34 44 -29 4 6 -11 27
-32 47 -21 21 -41 34 -44 29z m28 -23 c10 -11 16 -20 13 -20 -3 0 -13 9 -23
20 -10 11 -16 20 -13 20 3 0 13 -9 23 -20z"/>
<path d="M5935 1630 c99 -99 181 -180 183 -180 10 0 -36 50 -116 125 -51 48
-89 91 -86 96 3 5 2 8 -3 7 -4 -2 -8 0 -8 3 0 12 -38 49 -45 44 -4 -3 -26 15
-49 40 -23 25 -45 45 -49 45 -4 0 74 -81 173 -180z"/>
<path d="M6185 1390 c10 -11 20 -20 23 -20 3 0 -3 9 -13 20 -10 11 -20 20 -23
20 -3 0 3 -9 13 -20z"/>
<path d="M4010 1675 c-8 -9 -8 -15 -2 -15 12 0 26 19 19 26 -2 2 -10 -2 -17
-11z"/>
<path d="M3998 1643 c7 -3 16 -2 19 1 4 3 -2 6 -13 5 -11 0 -14 -3 -6 -6z"/>
</g>
</svg>
